<mxfile host="app.diagrams.net" agent="Mozilla/5.0 (Windows NT 10.0; Win64; x64) AppleWebKit/537.36 (KHTML, like Gecko) Chrome/139.0.0.0 Safari/537.36" version="28.1.2">
  <diagram name="Page-1" id="AnlJjfi2_SoiYQRC1fbP">
    <mxGraphModel dx="786" dy="459" grid="1" gridSize="19" guides="1" tooltips="1" connect="1" arrows="1" fold="1" page="1" pageScale="1" pageWidth="1200" pageHeight="1920" math="0" shadow="0">
      <root>
        <mxCell id="0" />
        <mxCell id="1" parent="0" />
        <mxCell id="OUz7jEG2wL1sS6SU-Tpn-248" value="" style="ellipse;whiteSpace=wrap;html=1;fillColor=#f8cecc;strokeColor=#b85450;" parent="1" vertex="1">
          <mxGeometry x="2299" y="722" width="95" height="56" as="geometry" />
        </mxCell>
        <mxCell id="OUz7jEG2wL1sS6SU-Tpn-11" style="edgeStyle=orthogonalEdgeStyle;rounded=0;orthogonalLoop=1;jettySize=auto;html=1;exitX=1;exitY=0.5;exitDx=0;exitDy=0;entryX=0;entryY=0.5;entryDx=0;entryDy=0;" parent="1" source="u5YFiVKEUONqyycsZPm--1" target="OUz7jEG2wL1sS6SU-Tpn-3" edge="1">
          <mxGeometry relative="1" as="geometry" />
        </mxCell>
        <mxCell id="OUz7jEG2wL1sS6SU-Tpn-8" style="edgeStyle=orthogonalEdgeStyle;rounded=0;orthogonalLoop=1;jettySize=auto;html=1;exitX=0.75;exitY=1;exitDx=0;exitDy=0;entryX=0;entryY=0;entryDx=0;entryDy=0;" parent="1" source="u5YFiVKEUONqyycsZPm--2" target="u5YFiVKEUONqyycsZPm--4" edge="1">
          <mxGeometry relative="1" as="geometry" />
        </mxCell>
        <mxCell id="u5YFiVKEUONqyycsZPm--3" value="" style="ellipse;whiteSpace=wrap;html=1;fillColor=#f8cecc;strokeColor=#b85450;" parent="1" vertex="1">
          <mxGeometry x="43" y="285" width="88" height="60" as="geometry" />
        </mxCell>
        <mxCell id="u5YFiVKEUONqyycsZPm--4" value="" style="ellipse;whiteSpace=wrap;html=1;fillColor=#f8cecc;strokeColor=#b85450;" parent="1" vertex="1">
          <mxGeometry x="190" y="285" width="95" height="60" as="geometry" />
        </mxCell>
        <mxCell id="u5YFiVKEUONqyycsZPm--10" value="korisnikID" style="text;strokeColor=none;align=center;fillColor=none;html=1;verticalAlign=middle;whiteSpace=wrap;rounded=0;fontSize=12;" parent="1" vertex="1">
          <mxGeometry x="57" y="300" width="60" height="30" as="geometry" />
        </mxCell>
        <mxCell id="u5YFiVKEUONqyycsZPm--11" value="lozinka" style="text;strokeColor=none;align=center;fillColor=none;html=1;verticalAlign=middle;whiteSpace=wrap;rounded=0;fontSize=12;" parent="1" vertex="1">
          <mxGeometry x="207.5" y="300" width="60" height="30" as="geometry" />
        </mxCell>
        <mxCell id="OUz7jEG2wL1sS6SU-Tpn-25" style="edgeStyle=orthogonalEdgeStyle;rounded=0;orthogonalLoop=1;jettySize=auto;html=1;exitX=1;exitY=0.5;exitDx=0;exitDy=0;entryX=0;entryY=0.5;entryDx=0;entryDy=0;" parent="1" source="OUz7jEG2wL1sS6SU-Tpn-3" target="OUz7jEG2wL1sS6SU-Tpn-14" edge="1">
          <mxGeometry relative="1" as="geometry" />
        </mxCell>
        <mxCell id="OUz7jEG2wL1sS6SU-Tpn-3" value="" style="rhombus;whiteSpace=wrap;html=1;fillColor=#fff2cc;strokeColor=#d6b656;" parent="1" vertex="1">
          <mxGeometry x="285" y="190" width="114" height="80" as="geometry" />
        </mxCell>
        <mxCell id="OUz7jEG2wL1sS6SU-Tpn-4" value="Ima_Dogadjaj" style="text;strokeColor=none;align=center;fillColor=none;html=1;verticalAlign=middle;whiteSpace=wrap;rounded=0;fontSize=12;" parent="1" vertex="1">
          <mxGeometry x="312" y="215" width="60" height="30" as="geometry" />
        </mxCell>
        <mxCell id="OUz7jEG2wL1sS6SU-Tpn-10" style="edgeStyle=orthogonalEdgeStyle;rounded=0;orthogonalLoop=1;jettySize=auto;html=1;exitX=0.25;exitY=1;exitDx=0;exitDy=0;entryX=0.61;entryY=0.04;entryDx=0;entryDy=0;entryPerimeter=0;" parent="1" source="u5YFiVKEUONqyycsZPm--2" target="u5YFiVKEUONqyycsZPm--3" edge="1">
          <mxGeometry relative="1" as="geometry" />
        </mxCell>
        <mxCell id="OUz7jEG2wL1sS6SU-Tpn-40" style="edgeStyle=orthogonalEdgeStyle;rounded=0;orthogonalLoop=1;jettySize=auto;html=1;exitX=1;exitY=0.5;exitDx=0;exitDy=0;entryX=0;entryY=0.5;entryDx=0;entryDy=0;" parent="1" source="OUz7jEG2wL1sS6SU-Tpn-14" target="OUz7jEG2wL1sS6SU-Tpn-38" edge="1">
          <mxGeometry relative="1" as="geometry" />
        </mxCell>
        <mxCell id="OUz7jEG2wL1sS6SU-Tpn-14" value="" style="rounded=0;whiteSpace=wrap;html=1;fillColor=#d5e8d4;strokeColor=#82b366;" parent="1" vertex="1">
          <mxGeometry x="494" y="190" width="101" height="44" as="geometry" />
        </mxCell>
        <mxCell id="OUz7jEG2wL1sS6SU-Tpn-13" value="Kalendar" style="text;align=center;html=1;verticalAlign=middle;whiteSpace=wrap;rounded=0;fontSize=12;" parent="1" vertex="1">
          <mxGeometry x="504.5" y="192" width="80" height="40" as="geometry" />
        </mxCell>
        <mxCell id="OUz7jEG2wL1sS6SU-Tpn-16" value="" style="ellipse;whiteSpace=wrap;html=1;fillColor=#f8cecc;strokeColor=#b85450;" parent="1" vertex="1">
          <mxGeometry x="409.5" y="289" width="95" height="60" as="geometry" />
        </mxCell>
        <mxCell id="OUz7jEG2wL1sS6SU-Tpn-17" value="opis" style="text;strokeColor=none;align=center;fillColor=none;html=1;verticalAlign=middle;whiteSpace=wrap;rounded=0;fontSize=12;" parent="1" vertex="1">
          <mxGeometry x="427" y="304" width="60" height="30" as="geometry" />
        </mxCell>
        <mxCell id="OUz7jEG2wL1sS6SU-Tpn-18" value="" style="ellipse;whiteSpace=wrap;html=1;fillColor=#f8cecc;strokeColor=#b85450;" parent="1" vertex="1">
          <mxGeometry x="627" y="289" width="95" height="60" as="geometry" />
        </mxCell>
        <mxCell id="OUz7jEG2wL1sS6SU-Tpn-19" value="vreme" style="text;strokeColor=none;align=center;fillColor=none;html=1;verticalAlign=middle;whiteSpace=wrap;rounded=0;fontSize=12;" parent="1" vertex="1">
          <mxGeometry x="644.5" y="304" width="60" height="30" as="geometry" />
        </mxCell>
        <mxCell id="OUz7jEG2wL1sS6SU-Tpn-20" value="" style="ellipse;whiteSpace=wrap;html=1;fillColor=#f8cecc;strokeColor=#b85450;" parent="1" vertex="1">
          <mxGeometry x="513" y="289" width="95" height="60" as="geometry" />
        </mxCell>
        <mxCell id="OUz7jEG2wL1sS6SU-Tpn-21" value="korisnikID" style="text;strokeColor=none;align=center;fillColor=none;html=1;verticalAlign=middle;whiteSpace=wrap;rounded=0;fontSize=12;" parent="1" vertex="1">
          <mxGeometry x="530.5" y="304" width="60" height="30" as="geometry" />
        </mxCell>
        <mxCell id="OUz7jEG2wL1sS6SU-Tpn-22" style="edgeStyle=orthogonalEdgeStyle;rounded=0;orthogonalLoop=1;jettySize=auto;html=1;exitX=0.25;exitY=1;exitDx=0;exitDy=0;entryX=0.714;entryY=0.085;entryDx=0;entryDy=0;entryPerimeter=0;" parent="1" source="OUz7jEG2wL1sS6SU-Tpn-13" target="OUz7jEG2wL1sS6SU-Tpn-16" edge="1">
          <mxGeometry relative="1" as="geometry" />
        </mxCell>
        <mxCell id="OUz7jEG2wL1sS6SU-Tpn-23" style="edgeStyle=orthogonalEdgeStyle;rounded=0;orthogonalLoop=1;jettySize=auto;html=1;exitX=0.5;exitY=1;exitDx=0;exitDy=0;entryX=0.368;entryY=0.098;entryDx=0;entryDy=0;entryPerimeter=0;" parent="1" source="OUz7jEG2wL1sS6SU-Tpn-13" target="OUz7jEG2wL1sS6SU-Tpn-20" edge="1">
          <mxGeometry relative="1" as="geometry" />
        </mxCell>
        <mxCell id="OUz7jEG2wL1sS6SU-Tpn-24" style="edgeStyle=orthogonalEdgeStyle;rounded=0;orthogonalLoop=1;jettySize=auto;html=1;exitX=0.75;exitY=1;exitDx=0;exitDy=0;entryX=0.423;entryY=0.007;entryDx=0;entryDy=0;entryPerimeter=0;" parent="1" source="OUz7jEG2wL1sS6SU-Tpn-13" target="OUz7jEG2wL1sS6SU-Tpn-18" edge="1">
          <mxGeometry relative="1" as="geometry" />
        </mxCell>
        <mxCell id="OUz7jEG2wL1sS6SU-Tpn-27" value="" style="rounded=0;whiteSpace=wrap;html=1;fillColor=#d5e8d4;strokeColor=#82b366;" parent="1" vertex="1">
          <mxGeometry x="955" y="175" width="101" height="44" as="geometry" />
        </mxCell>
        <mxCell id="OUz7jEG2wL1sS6SU-Tpn-28" value="PrikazanoU" style="text;align=center;html=1;verticalAlign=middle;whiteSpace=wrap;rounded=0;fontSize=12;" parent="1" vertex="1">
          <mxGeometry x="965.5" y="179" width="80" height="40" as="geometry" />
        </mxCell>
        <mxCell id="OUz7jEG2wL1sS6SU-Tpn-29" value="" style="ellipse;whiteSpace=wrap;html=1;fillColor=#f8cecc;strokeColor=#b85450;" parent="1" vertex="1">
          <mxGeometry x="888" y="274" width="95" height="60" as="geometry" />
        </mxCell>
        <mxCell id="OUz7jEG2wL1sS6SU-Tpn-30" value="slucajID" style="text;strokeColor=none;align=center;fillColor=none;html=1;verticalAlign=middle;whiteSpace=wrap;rounded=0;fontSize=12;" parent="1" vertex="1">
          <mxGeometry x="905.5" y="289" width="60" height="30" as="geometry" />
        </mxCell>
        <mxCell id="OUz7jEG2wL1sS6SU-Tpn-31" value="" style="ellipse;whiteSpace=wrap;html=1;fillColor=#f8cecc;strokeColor=#b85450;" parent="1" vertex="1">
          <mxGeometry x="1088" y="274" width="95" height="60" as="geometry" />
        </mxCell>
        <mxCell id="OUz7jEG2wL1sS6SU-Tpn-32" value="vreme" style="text;strokeColor=none;align=center;fillColor=none;html=1;verticalAlign=middle;whiteSpace=wrap;rounded=0;fontSize=12;" parent="1" vertex="1">
          <mxGeometry x="1105.5" y="289" width="60" height="30" as="geometry" />
        </mxCell>
        <mxCell id="OUz7jEG2wL1sS6SU-Tpn-33" value="" style="ellipse;whiteSpace=wrap;html=1;fillColor=#f8cecc;strokeColor=#b85450;" parent="1" vertex="1">
          <mxGeometry x="993" y="300" width="95" height="60" as="geometry" />
        </mxCell>
        <mxCell id="OUz7jEG2wL1sS6SU-Tpn-34" value="korisnikID" style="text;strokeColor=none;align=center;fillColor=none;html=1;verticalAlign=middle;whiteSpace=wrap;rounded=0;fontSize=12;" parent="1" vertex="1">
          <mxGeometry x="1010.5" y="315" width="60" height="30" as="geometry" />
        </mxCell>
        <mxCell id="OUz7jEG2wL1sS6SU-Tpn-35" style="edgeStyle=orthogonalEdgeStyle;rounded=0;orthogonalLoop=1;jettySize=auto;html=1;exitX=0.25;exitY=1;exitDx=0;exitDy=0;entryX=0.714;entryY=0.085;entryDx=0;entryDy=0;entryPerimeter=0;" parent="1" source="OUz7jEG2wL1sS6SU-Tpn-28" edge="1">
          <mxGeometry relative="1" as="geometry">
            <mxPoint x="938.3300000000002" y="279.1" as="targetPoint" />
          </mxGeometry>
        </mxCell>
        <mxCell id="OUz7jEG2wL1sS6SU-Tpn-36" style="edgeStyle=orthogonalEdgeStyle;rounded=0;orthogonalLoop=1;jettySize=auto;html=1;exitX=0.5;exitY=1;exitDx=0;exitDy=0;entryX=0.368;entryY=0.098;entryDx=0;entryDy=0;entryPerimeter=0;" parent="1" source="OUz7jEG2wL1sS6SU-Tpn-28" target="OUz7jEG2wL1sS6SU-Tpn-33" edge="1">
          <mxGeometry relative="1" as="geometry" />
        </mxCell>
        <mxCell id="OUz7jEG2wL1sS6SU-Tpn-37" style="edgeStyle=orthogonalEdgeStyle;rounded=0;orthogonalLoop=1;jettySize=auto;html=1;exitX=0.75;exitY=1;exitDx=0;exitDy=0;entryX=0.423;entryY=0.007;entryDx=0;entryDy=0;entryPerimeter=0;" parent="1" source="OUz7jEG2wL1sS6SU-Tpn-28" target="OUz7jEG2wL1sS6SU-Tpn-31" edge="1">
          <mxGeometry relative="1" as="geometry" />
        </mxCell>
        <mxCell id="OUz7jEG2wL1sS6SU-Tpn-41" style="edgeStyle=orthogonalEdgeStyle;rounded=0;orthogonalLoop=1;jettySize=auto;html=1;exitX=1;exitY=0.5;exitDx=0;exitDy=0;entryX=0;entryY=0.5;entryDx=0;entryDy=0;" parent="1" source="OUz7jEG2wL1sS6SU-Tpn-38" target="OUz7jEG2wL1sS6SU-Tpn-27" edge="1">
          <mxGeometry relative="1" as="geometry" />
        </mxCell>
        <mxCell id="OUz7jEG2wL1sS6SU-Tpn-38" value="" style="rhombus;whiteSpace=wrap;html=1;fillColor=#fff2cc;strokeColor=#d6b656;" parent="1" vertex="1">
          <mxGeometry x="722" y="190" width="114" height="80" as="geometry" />
        </mxCell>
        <mxCell id="OUz7jEG2wL1sS6SU-Tpn-39" value="Zakazano" style="text;strokeColor=none;align=center;fillColor=none;html=1;verticalAlign=middle;whiteSpace=wrap;rounded=0;fontSize=12;" parent="1" vertex="1">
          <mxGeometry x="749" y="215" width="60" height="30" as="geometry" />
        </mxCell>
        <mxCell id="OUz7jEG2wL1sS6SU-Tpn-55" value="" style="rounded=0;whiteSpace=wrap;html=1;fillColor=#d5e8d4;strokeColor=#82b366;" parent="1" vertex="1">
          <mxGeometry x="285" y="513" width="101" height="44" as="geometry" />
        </mxCell>
        <mxCell id="OUz7jEG2wL1sS6SU-Tpn-70" style="edgeStyle=orthogonalEdgeStyle;rounded=0;orthogonalLoop=1;jettySize=auto;html=1;exitX=0;exitY=1;exitDx=0;exitDy=0;entryX=0.5;entryY=0;entryDx=0;entryDy=0;" parent="1" source="OUz7jEG2wL1sS6SU-Tpn-56" target="OUz7jEG2wL1sS6SU-Tpn-66" edge="1">
          <mxGeometry relative="1" as="geometry" />
        </mxCell>
        <mxCell id="OUz7jEG2wL1sS6SU-Tpn-71" style="edgeStyle=orthogonalEdgeStyle;rounded=0;orthogonalLoop=1;jettySize=auto;html=1;exitX=1;exitY=1;exitDx=0;exitDy=0;entryX=0.5;entryY=0;entryDx=0;entryDy=0;" parent="1" source="OUz7jEG2wL1sS6SU-Tpn-56" target="OUz7jEG2wL1sS6SU-Tpn-68" edge="1">
          <mxGeometry relative="1" as="geometry">
            <Array as="points">
              <mxPoint x="375" y="608" />
              <mxPoint x="403" y="608" />
            </Array>
          </mxGeometry>
        </mxCell>
        <mxCell id="OUz7jEG2wL1sS6SU-Tpn-105" style="edgeStyle=orthogonalEdgeStyle;rounded=0;orthogonalLoop=1;jettySize=auto;html=1;" parent="1" edge="1">
          <mxGeometry relative="1" as="geometry">
            <mxPoint x="152" y="798" as="targetPoint" />
            <mxPoint x="285" y="532" as="sourcePoint" />
          </mxGeometry>
        </mxCell>
        <mxCell id="OUz7jEG2wL1sS6SU-Tpn-155" style="edgeStyle=orthogonalEdgeStyle;rounded=0;orthogonalLoop=1;jettySize=auto;html=1;exitX=0.5;exitY=0;exitDx=0;exitDy=0;" parent="1" source="OUz7jEG2wL1sS6SU-Tpn-56" edge="1">
          <mxGeometry relative="1" as="geometry">
            <mxPoint x="165" y="456" as="targetPoint" />
          </mxGeometry>
        </mxCell>
        <mxCell id="OUz7jEG2wL1sS6SU-Tpn-56" value="Klijent" style="text;align=center;html=1;verticalAlign=middle;whiteSpace=wrap;rounded=0;fontSize=12;" parent="1" vertex="1">
          <mxGeometry x="295.5" y="515" width="80" height="40" as="geometry" />
        </mxCell>
        <mxCell id="OUz7jEG2wL1sS6SU-Tpn-57" value="" style="ellipse;whiteSpace=wrap;html=1;fillColor=#f8cecc;strokeColor=#b85450;" parent="1" vertex="1">
          <mxGeometry x="200.5" y="612" width="95" height="60" as="geometry" />
        </mxCell>
        <mxCell id="OUz7jEG2wL1sS6SU-Tpn-58" value="ime" style="text;strokeColor=none;align=center;fillColor=none;html=1;verticalAlign=middle;whiteSpace=wrap;rounded=0;fontSize=12;" parent="1" vertex="1">
          <mxGeometry x="218" y="627" width="60" height="30" as="geometry" />
        </mxCell>
        <mxCell id="OUz7jEG2wL1sS6SU-Tpn-59" value="" style="ellipse;whiteSpace=wrap;html=1;fillColor=#f8cecc;strokeColor=#b85450;" parent="1" vertex="1">
          <mxGeometry x="418" y="612" width="95" height="60" as="geometry" />
        </mxCell>
        <mxCell id="OUz7jEG2wL1sS6SU-Tpn-60" value="prezime" style="text;strokeColor=none;align=center;fillColor=none;html=1;verticalAlign=middle;whiteSpace=wrap;rounded=0;fontSize=12;" parent="1" vertex="1">
          <mxGeometry x="435.5" y="627" width="60" height="30" as="geometry" />
        </mxCell>
        <mxCell id="OUz7jEG2wL1sS6SU-Tpn-61" value="" style="ellipse;whiteSpace=wrap;html=1;fillColor=#f8cecc;strokeColor=#b85450;" parent="1" vertex="1">
          <mxGeometry x="304" y="612" width="95" height="60" as="geometry" />
        </mxCell>
        <mxCell id="OUz7jEG2wL1sS6SU-Tpn-62" value="korisnikID" style="text;strokeColor=none;align=center;fillColor=none;html=1;verticalAlign=middle;whiteSpace=wrap;rounded=0;fontSize=12;" parent="1" vertex="1">
          <mxGeometry x="321.5" y="627" width="60" height="30" as="geometry" />
        </mxCell>
        <mxCell id="OUz7jEG2wL1sS6SU-Tpn-63" style="edgeStyle=orthogonalEdgeStyle;rounded=0;orthogonalLoop=1;jettySize=auto;html=1;exitX=0.25;exitY=1;exitDx=0;exitDy=0;entryX=0.714;entryY=0.085;entryDx=0;entryDy=0;entryPerimeter=0;" parent="1" source="OUz7jEG2wL1sS6SU-Tpn-56" target="OUz7jEG2wL1sS6SU-Tpn-57" edge="1">
          <mxGeometry relative="1" as="geometry" />
        </mxCell>
        <mxCell id="OUz7jEG2wL1sS6SU-Tpn-64" style="edgeStyle=orthogonalEdgeStyle;rounded=0;orthogonalLoop=1;jettySize=auto;html=1;exitX=0.5;exitY=1;exitDx=0;exitDy=0;entryX=0.368;entryY=0.098;entryDx=0;entryDy=0;entryPerimeter=0;" parent="1" source="OUz7jEG2wL1sS6SU-Tpn-56" target="OUz7jEG2wL1sS6SU-Tpn-61" edge="1">
          <mxGeometry relative="1" as="geometry" />
        </mxCell>
        <mxCell id="OUz7jEG2wL1sS6SU-Tpn-65" style="edgeStyle=orthogonalEdgeStyle;rounded=0;orthogonalLoop=1;jettySize=auto;html=1;exitX=0.75;exitY=1;exitDx=0;exitDy=0;entryX=0.423;entryY=0.007;entryDx=0;entryDy=0;entryPerimeter=0;" parent="1" source="OUz7jEG2wL1sS6SU-Tpn-56" target="OUz7jEG2wL1sS6SU-Tpn-59" edge="1">
          <mxGeometry relative="1" as="geometry" />
        </mxCell>
        <mxCell id="OUz7jEG2wL1sS6SU-Tpn-66" value="" style="ellipse;whiteSpace=wrap;html=1;fillColor=#f8cecc;strokeColor=#b85450;" parent="1" vertex="1">
          <mxGeometry x="252.25" y="703" width="95" height="60" as="geometry" />
        </mxCell>
        <mxCell id="OUz7jEG2wL1sS6SU-Tpn-67" value="adresa" style="text;strokeColor=none;align=center;fillColor=none;html=1;verticalAlign=middle;whiteSpace=wrap;rounded=0;fontSize=12;" parent="1" vertex="1">
          <mxGeometry x="269.75" y="718" width="60" height="30" as="geometry" />
        </mxCell>
        <mxCell id="OUz7jEG2wL1sS6SU-Tpn-68" value="" style="ellipse;whiteSpace=wrap;html=1;fillColor=#f8cecc;strokeColor=#b85450;" parent="1" vertex="1">
          <mxGeometry x="355.75" y="703" width="95" height="60" as="geometry" />
        </mxCell>
        <mxCell id="OUz7jEG2wL1sS6SU-Tpn-69" value="telefon" style="text;strokeColor=none;align=center;fillColor=none;html=1;verticalAlign=middle;whiteSpace=wrap;rounded=0;fontSize=12;" parent="1" vertex="1">
          <mxGeometry x="373.25" y="718" width="60" height="30" as="geometry" />
        </mxCell>
        <mxCell id="OUz7jEG2wL1sS6SU-Tpn-81" value="" style="rounded=0;whiteSpace=wrap;html=1;fillColor=#d5e8d4;strokeColor=#82b366;" parent="1" vertex="1">
          <mxGeometry x="157" y="951" width="90" height="38" as="geometry" />
        </mxCell>
        <mxCell id="OUz7jEG2wL1sS6SU-Tpn-82" style="edgeStyle=orthogonalEdgeStyle;rounded=0;orthogonalLoop=1;jettySize=auto;html=1;exitX=0.75;exitY=1;exitDx=0;exitDy=0;entryX=0;entryY=0;entryDx=0;entryDy=0;" parent="1" source="OUz7jEG2wL1sS6SU-Tpn-83" target="OUz7jEG2wL1sS6SU-Tpn-85" edge="1">
          <mxGeometry relative="1" as="geometry" />
        </mxCell>
        <mxCell id="OUz7jEG2wL1sS6SU-Tpn-83" value="KlijentRacun" style="text;align=center;html=1;verticalAlign=middle;whiteSpace=wrap;rounded=0;fontSize=12;" parent="1" vertex="1">
          <mxGeometry x="162" y="950" width="80" height="40" as="geometry" />
        </mxCell>
        <mxCell id="OUz7jEG2wL1sS6SU-Tpn-84" value="" style="ellipse;whiteSpace=wrap;html=1;fillColor=#f8cecc;strokeColor=#b85450;" parent="1" vertex="1">
          <mxGeometry x="95" y="1040" width="88" height="60" as="geometry" />
        </mxCell>
        <mxCell id="OUz7jEG2wL1sS6SU-Tpn-85" value="" style="ellipse;whiteSpace=wrap;html=1;fillColor=#f8cecc;strokeColor=#b85450;" parent="1" vertex="1">
          <mxGeometry x="242" y="1040" width="95" height="60" as="geometry" />
        </mxCell>
        <mxCell id="OUz7jEG2wL1sS6SU-Tpn-86" value="korisnikID" style="text;strokeColor=none;align=center;fillColor=none;html=1;verticalAlign=middle;whiteSpace=wrap;rounded=0;fontSize=12;" parent="1" vertex="1">
          <mxGeometry x="109" y="1055" width="60" height="30" as="geometry" />
        </mxCell>
        <mxCell id="OUz7jEG2wL1sS6SU-Tpn-87" value="racunID" style="text;strokeColor=none;align=center;fillColor=none;html=1;verticalAlign=middle;whiteSpace=wrap;rounded=0;fontSize=12;" parent="1" vertex="1">
          <mxGeometry x="259.5" y="1055" width="60" height="30" as="geometry" />
        </mxCell>
        <mxCell id="OUz7jEG2wL1sS6SU-Tpn-88" style="edgeStyle=orthogonalEdgeStyle;rounded=0;orthogonalLoop=1;jettySize=auto;html=1;exitX=0.25;exitY=1;exitDx=0;exitDy=0;entryX=0.61;entryY=0.04;entryDx=0;entryDy=0;entryPerimeter=0;" parent="1" source="OUz7jEG2wL1sS6SU-Tpn-83" target="OUz7jEG2wL1sS6SU-Tpn-84" edge="1">
          <mxGeometry relative="1" as="geometry" />
        </mxCell>
        <mxCell id="OUz7jEG2wL1sS6SU-Tpn-120" style="edgeStyle=orthogonalEdgeStyle;rounded=0;orthogonalLoop=1;jettySize=auto;html=1;exitX=0;exitY=0.5;exitDx=0;exitDy=0;entryX=1;entryY=0.5;entryDx=0;entryDy=0;" parent="1" source="OUz7jEG2wL1sS6SU-Tpn-90" target="OUz7jEG2wL1sS6SU-Tpn-116" edge="1">
          <mxGeometry relative="1" as="geometry" />
        </mxCell>
        <mxCell id="OUz7jEG2wL1sS6SU-Tpn-90" value="" style="rounded=0;whiteSpace=wrap;html=1;fillColor=#d5e8d4;strokeColor=#82b366;" parent="1" vertex="1">
          <mxGeometry x="559.5" y="931" width="101" height="44" as="geometry" />
        </mxCell>
        <mxCell id="OUz7jEG2wL1sS6SU-Tpn-91" value="Racun" style="text;align=center;html=1;verticalAlign=middle;whiteSpace=wrap;rounded=0;fontSize=12;" parent="1" vertex="1">
          <mxGeometry x="570" y="933" width="80" height="40" as="geometry" />
        </mxCell>
        <mxCell id="OUz7jEG2wL1sS6SU-Tpn-92" value="" style="ellipse;whiteSpace=wrap;html=1;fillColor=#f8cecc;strokeColor=#b85450;" parent="1" vertex="1">
          <mxGeometry x="475" y="1030" width="95" height="60" as="geometry" />
        </mxCell>
        <mxCell id="OUz7jEG2wL1sS6SU-Tpn-93" value="racunID" style="text;strokeColor=none;align=center;fillColor=none;html=1;verticalAlign=middle;whiteSpace=wrap;rounded=0;fontSize=12;" parent="1" vertex="1">
          <mxGeometry x="492.5" y="1045" width="60" height="30" as="geometry" />
        </mxCell>
        <mxCell id="OUz7jEG2wL1sS6SU-Tpn-94" value="" style="ellipse;whiteSpace=wrap;html=1;fillColor=#f8cecc;strokeColor=#b85450;" parent="1" vertex="1">
          <mxGeometry x="692.5" y="1030" width="95" height="60" as="geometry" />
        </mxCell>
        <mxCell id="OUz7jEG2wL1sS6SU-Tpn-95" value="iznos" style="text;strokeColor=none;align=center;fillColor=none;html=1;verticalAlign=middle;whiteSpace=wrap;rounded=0;fontSize=12;" parent="1" vertex="1">
          <mxGeometry x="710" y="1045" width="60" height="30" as="geometry" />
        </mxCell>
        <mxCell id="OUz7jEG2wL1sS6SU-Tpn-96" value="" style="ellipse;whiteSpace=wrap;html=1;fillColor=#f8cecc;strokeColor=#b85450;" parent="1" vertex="1">
          <mxGeometry x="578.5" y="1030" width="95" height="60" as="geometry" />
        </mxCell>
        <mxCell id="OUz7jEG2wL1sS6SU-Tpn-97" value="datumPlacanja" style="text;strokeColor=none;align=center;fillColor=none;html=1;verticalAlign=middle;whiteSpace=wrap;rounded=0;fontSize=12;" parent="1" vertex="1">
          <mxGeometry x="596" y="1045" width="60" height="30" as="geometry" />
        </mxCell>
        <mxCell id="OUz7jEG2wL1sS6SU-Tpn-98" style="edgeStyle=orthogonalEdgeStyle;rounded=0;orthogonalLoop=1;jettySize=auto;html=1;exitX=0.25;exitY=1;exitDx=0;exitDy=0;entryX=0.714;entryY=0.085;entryDx=0;entryDy=0;entryPerimeter=0;" parent="1" source="OUz7jEG2wL1sS6SU-Tpn-91" target="OUz7jEG2wL1sS6SU-Tpn-92" edge="1">
          <mxGeometry relative="1" as="geometry" />
        </mxCell>
        <mxCell id="OUz7jEG2wL1sS6SU-Tpn-99" style="edgeStyle=orthogonalEdgeStyle;rounded=0;orthogonalLoop=1;jettySize=auto;html=1;exitX=0.5;exitY=1;exitDx=0;exitDy=0;entryX=0.368;entryY=0.098;entryDx=0;entryDy=0;entryPerimeter=0;" parent="1" source="OUz7jEG2wL1sS6SU-Tpn-91" target="OUz7jEG2wL1sS6SU-Tpn-96" edge="1">
          <mxGeometry relative="1" as="geometry" />
        </mxCell>
        <mxCell id="OUz7jEG2wL1sS6SU-Tpn-100" style="edgeStyle=orthogonalEdgeStyle;rounded=0;orthogonalLoop=1;jettySize=auto;html=1;exitX=0.75;exitY=1;exitDx=0;exitDy=0;entryX=0.423;entryY=0.007;entryDx=0;entryDy=0;entryPerimeter=0;" parent="1" source="OUz7jEG2wL1sS6SU-Tpn-91" target="OUz7jEG2wL1sS6SU-Tpn-94" edge="1">
          <mxGeometry relative="1" as="geometry" />
        </mxCell>
        <mxCell id="OUz7jEG2wL1sS6SU-Tpn-110" style="edgeStyle=orthogonalEdgeStyle;rounded=0;orthogonalLoop=1;jettySize=auto;html=1;exitX=0.5;exitY=1;exitDx=0;exitDy=0;entryX=0.5;entryY=0;entryDx=0;entryDy=0;" parent="1" source="OUz7jEG2wL1sS6SU-Tpn-107" target="OUz7jEG2wL1sS6SU-Tpn-83" edge="1">
          <mxGeometry relative="1" as="geometry" />
        </mxCell>
        <mxCell id="OUz7jEG2wL1sS6SU-Tpn-107" value="" style="rhombus;whiteSpace=wrap;html=1;fillColor=#fff2cc;strokeColor=#d6b656;" parent="1" vertex="1">
          <mxGeometry x="93.03" y="800" width="114" height="80" as="geometry" />
        </mxCell>
        <mxCell id="OUz7jEG2wL1sS6SU-Tpn-108" value="Placa" style="text;strokeColor=none;align=center;fillColor=none;html=1;verticalAlign=middle;whiteSpace=wrap;rounded=0;fontSize=12;" parent="1" vertex="1">
          <mxGeometry x="120.03" y="819" width="68" height="36" as="geometry" />
        </mxCell>
        <mxCell id="OUz7jEG2wL1sS6SU-Tpn-122" style="edgeStyle=orthogonalEdgeStyle;rounded=0;orthogonalLoop=1;jettySize=auto;html=1;exitX=0;exitY=0.5;exitDx=0;exitDy=0;entryX=1;entryY=0.5;entryDx=0;entryDy=0;" parent="1" source="OUz7jEG2wL1sS6SU-Tpn-116" target="OUz7jEG2wL1sS6SU-Tpn-81" edge="1">
          <mxGeometry relative="1" as="geometry" />
        </mxCell>
        <mxCell id="OUz7jEG2wL1sS6SU-Tpn-116" value="" style="rhombus;whiteSpace=wrap;html=1;fillColor=#fff2cc;strokeColor=#d6b656;" parent="1" vertex="1">
          <mxGeometry x="347.25" y="920" width="114" height="80" as="geometry" />
        </mxCell>
        <mxCell id="OUz7jEG2wL1sS6SU-Tpn-117" value="Je_Za_Klijenta" style="text;strokeColor=none;align=center;fillColor=none;html=1;verticalAlign=middle;whiteSpace=wrap;rounded=0;fontSize=12;" parent="1" vertex="1">
          <mxGeometry x="366.25" y="939" width="76" height="36" as="geometry" />
        </mxCell>
        <mxCell id="OUz7jEG2wL1sS6SU-Tpn-196" style="edgeStyle=orthogonalEdgeStyle;rounded=0;orthogonalLoop=1;jettySize=auto;html=1;exitX=0;exitY=0.5;exitDx=0;exitDy=0;" parent="1" source="OUz7jEG2wL1sS6SU-Tpn-123" edge="1">
          <mxGeometry relative="1" as="geometry">
            <mxPoint x="778.9999999999998" y="665" as="targetPoint" />
            <Array as="points">
              <mxPoint x="779" y="591" />
            </Array>
          </mxGeometry>
        </mxCell>
        <mxCell id="OUz7jEG2wL1sS6SU-Tpn-201" style="edgeStyle=orthogonalEdgeStyle;rounded=0;orthogonalLoop=1;jettySize=auto;html=1;exitX=1;exitY=0.5;exitDx=0;exitDy=0;entryX=0.5;entryY=0;entryDx=0;entryDy=0;" parent="1" source="OUz7jEG2wL1sS6SU-Tpn-123" target="OUz7jEG2wL1sS6SU-Tpn-176" edge="1">
          <mxGeometry relative="1" as="geometry" />
        </mxCell>
        <mxCell id="OUz7jEG2wL1sS6SU-Tpn-204" style="edgeStyle=orthogonalEdgeStyle;rounded=0;orthogonalLoop=1;jettySize=auto;html=1;exitX=1;exitY=0.75;exitDx=0;exitDy=0;entryX=0.5;entryY=0;entryDx=0;entryDy=0;" parent="1" source="OUz7jEG2wL1sS6SU-Tpn-123" target="OUz7jEG2wL1sS6SU-Tpn-174" edge="1">
          <mxGeometry relative="1" as="geometry" />
        </mxCell>
        <mxCell id="OUz7jEG2wL1sS6SU-Tpn-123" value="" style="rounded=0;whiteSpace=wrap;html=1;fillColor=#d5e8d4;strokeColor=#82b366;" parent="1" vertex="1">
          <mxGeometry x="817.5" y="569" width="101" height="44" as="geometry" />
        </mxCell>
        <mxCell id="OUz7jEG2wL1sS6SU-Tpn-165" style="edgeStyle=orthogonalEdgeStyle;rounded=0;orthogonalLoop=1;jettySize=auto;html=1;exitX=0.5;exitY=0;exitDx=0;exitDy=0;" parent="1" source="OUz7jEG2wL1sS6SU-Tpn-126" edge="1">
          <mxGeometry relative="1" as="geometry">
            <mxPoint x="867.9411764705883" y="570.5882352941176" as="targetPoint" />
          </mxGeometry>
        </mxCell>
        <mxCell id="OUz7jEG2wL1sS6SU-Tpn-199" style="edgeStyle=orthogonalEdgeStyle;rounded=0;orthogonalLoop=1;jettySize=auto;html=1;exitX=1;exitY=1;exitDx=0;exitDy=0;" parent="1" source="OUz7jEG2wL1sS6SU-Tpn-126" edge="1">
          <mxGeometry relative="1" as="geometry">
            <mxPoint x="1102" y="665" as="targetPoint" />
            <Array as="points">
              <mxPoint x="908" y="627" />
              <mxPoint x="1103" y="627" />
              <mxPoint x="1103" y="665" />
            </Array>
          </mxGeometry>
        </mxCell>
        <mxCell id="OUz7jEG2wL1sS6SU-Tpn-203" style="edgeStyle=orthogonalEdgeStyle;rounded=0;orthogonalLoop=1;jettySize=auto;html=1;exitX=0;exitY=1;exitDx=0;exitDy=0;entryX=0;entryY=0.5;entryDx=0;entryDy=0;" parent="1" source="OUz7jEG2wL1sS6SU-Tpn-126" target="OUz7jEG2wL1sS6SU-Tpn-172" edge="1">
          <mxGeometry relative="1" as="geometry">
            <Array as="points">
              <mxPoint x="828" y="627" />
              <mxPoint x="722" y="627" />
              <mxPoint x="722" y="962" />
            </Array>
          </mxGeometry>
        </mxCell>
        <mxCell id="OUz7jEG2wL1sS6SU-Tpn-205" style="edgeStyle=orthogonalEdgeStyle;rounded=0;orthogonalLoop=1;jettySize=auto;html=1;exitX=1;exitY=0;exitDx=0;exitDy=0;" parent="1" source="OUz7jEG2wL1sS6SU-Tpn-126" target="OUz7jEG2wL1sS6SU-Tpn-170" edge="1">
          <mxGeometry relative="1" as="geometry" />
        </mxCell>
        <mxCell id="OUz7jEG2wL1sS6SU-Tpn-206" style="edgeStyle=orthogonalEdgeStyle;rounded=0;orthogonalLoop=1;jettySize=auto;html=1;exitX=0.75;exitY=0;exitDx=0;exitDy=0;entryX=0.5;entryY=0;entryDx=0;entryDy=0;" parent="1" source="OUz7jEG2wL1sS6SU-Tpn-126" target="OUz7jEG2wL1sS6SU-Tpn-186" edge="1">
          <mxGeometry relative="1" as="geometry">
            <Array as="points">
              <mxPoint x="888" y="532" />
              <mxPoint x="1178" y="532" />
              <mxPoint x="1178" y="763" />
            </Array>
          </mxGeometry>
        </mxCell>
        <mxCell id="OUz7jEG2wL1sS6SU-Tpn-207" style="edgeStyle=orthogonalEdgeStyle;rounded=0;orthogonalLoop=1;jettySize=auto;html=1;exitX=0.25;exitY=0;exitDx=0;exitDy=0;entryX=0;entryY=0.5;entryDx=0;entryDy=0;" parent="1" source="OUz7jEG2wL1sS6SU-Tpn-126" target="OUz7jEG2wL1sS6SU-Tpn-168" edge="1">
          <mxGeometry relative="1" as="geometry">
            <Array as="points">
              <mxPoint x="848" y="551" />
              <mxPoint x="684" y="551" />
              <mxPoint x="684" y="988" />
              <mxPoint x="990" y="988" />
              <mxPoint x="990" y="1045" />
            </Array>
          </mxGeometry>
        </mxCell>
        <mxCell id="OUz7jEG2wL1sS6SU-Tpn-209" style="edgeStyle=orthogonalEdgeStyle;rounded=0;orthogonalLoop=1;jettySize=auto;html=1;exitX=0.25;exitY=1;exitDx=0;exitDy=0;entryX=0.5;entryY=0;entryDx=0;entryDy=0;" parent="1" source="OUz7jEG2wL1sS6SU-Tpn-126" target="OUz7jEG2wL1sS6SU-Tpn-136" edge="1">
          <mxGeometry relative="1" as="geometry">
            <Array as="points">
              <mxPoint x="848" y="685" />
              <mxPoint x="832" y="685" />
              <mxPoint x="832" y="836" />
            </Array>
          </mxGeometry>
        </mxCell>
        <mxCell id="OUz7jEG2wL1sS6SU-Tpn-126" value="Advokat" style="text;align=center;html=1;verticalAlign=middle;whiteSpace=wrap;rounded=0;fontSize=12;" parent="1" vertex="1">
          <mxGeometry x="828" y="571" width="80" height="40" as="geometry" />
        </mxCell>
        <mxCell id="OUz7jEG2wL1sS6SU-Tpn-127" value="" style="ellipse;whiteSpace=wrap;html=1;fillColor=#f8cecc;strokeColor=#b85450;" parent="1" vertex="1">
          <mxGeometry x="733" y="668" width="95" height="60" as="geometry" />
        </mxCell>
        <mxCell id="OUz7jEG2wL1sS6SU-Tpn-128" value="ime" style="text;strokeColor=none;align=center;fillColor=none;html=1;verticalAlign=middle;whiteSpace=wrap;rounded=0;fontSize=12;" parent="1" vertex="1">
          <mxGeometry x="750.5" y="683" width="60" height="30" as="geometry" />
        </mxCell>
        <mxCell id="OUz7jEG2wL1sS6SU-Tpn-129" value="" style="ellipse;whiteSpace=wrap;html=1;fillColor=#f8cecc;strokeColor=#b85450;" parent="1" vertex="1">
          <mxGeometry x="950.5" y="699" width="95" height="60" as="geometry" />
        </mxCell>
        <mxCell id="OUz7jEG2wL1sS6SU-Tpn-130" value="prezime" style="text;strokeColor=none;align=center;fillColor=none;html=1;verticalAlign=middle;whiteSpace=wrap;rounded=0;fontSize=12;" parent="1" vertex="1">
          <mxGeometry x="968" y="714" width="60" height="30" as="geometry" />
        </mxCell>
        <mxCell id="OUz7jEG2wL1sS6SU-Tpn-131" value="" style="ellipse;whiteSpace=wrap;html=1;fillColor=#f8cecc;strokeColor=#b85450;" parent="1" vertex="1">
          <mxGeometry x="836.5" y="703" width="95" height="60" as="geometry" />
        </mxCell>
        <mxCell id="OUz7jEG2wL1sS6SU-Tpn-132" value="korisnikID" style="text;strokeColor=none;align=center;fillColor=none;html=1;verticalAlign=middle;whiteSpace=wrap;rounded=0;fontSize=12;" parent="1" vertex="1">
          <mxGeometry x="854" y="718" width="60" height="30" as="geometry" />
        </mxCell>
        <mxCell id="OUz7jEG2wL1sS6SU-Tpn-136" value="" style="ellipse;whiteSpace=wrap;html=1;fillColor=#f8cecc;strokeColor=#b85450;" parent="1" vertex="1">
          <mxGeometry x="741.5" y="836" width="95" height="60" as="geometry" />
        </mxCell>
        <mxCell id="OUz7jEG2wL1sS6SU-Tpn-137" value="srednjeIme" style="text;strokeColor=none;align=center;fillColor=none;html=1;verticalAlign=middle;whiteSpace=wrap;rounded=0;fontSize=12;" parent="1" vertex="1">
          <mxGeometry x="759" y="851" width="60" height="30" as="geometry" />
        </mxCell>
        <mxCell id="OUz7jEG2wL1sS6SU-Tpn-147" value="" style="triangle;whiteSpace=wrap;html=1;rotation=-90;fillColor=#dae8fc;strokeColor=#6c8ebf;" parent="1" vertex="1">
          <mxGeometry x="135" y="402" width="60" height="80" as="geometry" />
        </mxCell>
        <mxCell id="OUz7jEG2wL1sS6SU-Tpn-164" style="edgeStyle=orthogonalEdgeStyle;rounded=0;orthogonalLoop=1;jettySize=auto;html=1;entryX=0;entryY=0.5;entryDx=0;entryDy=0;exitX=1;exitY=0.5;exitDx=0;exitDy=0;" parent="1" source="OUz7jEG2wL1sS6SU-Tpn-147" target="u5YFiVKEUONqyycsZPm--1" edge="1">
          <mxGeometry relative="1" as="geometry">
            <mxPoint x="19" y="209" as="targetPoint" />
            <mxPoint x="165" y="399" as="sourcePoint" />
            <Array as="points">
              <mxPoint x="165" y="380" />
              <mxPoint x="19" y="380" />
              <mxPoint x="19" y="215" />
            </Array>
          </mxGeometry>
        </mxCell>
        <mxCell id="OUz7jEG2wL1sS6SU-Tpn-102" value="IS_A" style="text;strokeColor=none;align=center;fillColor=none;html=1;verticalAlign=middle;whiteSpace=wrap;rounded=0;fontSize=12;" parent="1" vertex="1">
          <mxGeometry x="131" y="437" width="68" height="19" as="geometry" />
        </mxCell>
        <mxCell id="OUz7jEG2wL1sS6SU-Tpn-160" style="edgeStyle=orthogonalEdgeStyle;rounded=0;orthogonalLoop=1;jettySize=auto;html=1;exitX=0.5;exitY=0;exitDx=0;exitDy=0;entryX=0.789;entryY=0.465;entryDx=0;entryDy=0;entryPerimeter=0;" parent="1" source="OUz7jEG2wL1sS6SU-Tpn-126" target="OUz7jEG2wL1sS6SU-Tpn-156" edge="1">
          <mxGeometry relative="1" as="geometry" />
        </mxCell>
        <mxCell id="OUz7jEG2wL1sS6SU-Tpn-162" style="edgeStyle=orthogonalEdgeStyle;rounded=0;orthogonalLoop=1;jettySize=auto;html=1;exitX=1;exitY=0.5;exitDx=0;exitDy=0;" parent="1" source="u5YFiVKEUONqyycsZPm--2" edge="1">
          <mxGeometry relative="1" as="geometry">
            <mxPoint x="152" y="209" as="targetPoint" />
            <mxPoint x="770.4999999999998" y="445.5" as="sourcePoint" />
            <Array as="points" />
          </mxGeometry>
        </mxCell>
        <mxCell id="OUz7jEG2wL1sS6SU-Tpn-156" value="" style="triangle;whiteSpace=wrap;html=1;rotation=-90;fillColor=#dae8fc;strokeColor=#6c8ebf;" parent="1" vertex="1">
          <mxGeometry x="749" y="433" width="60" height="80" as="geometry" />
        </mxCell>
        <mxCell id="OUz7jEG2wL1sS6SU-Tpn-157" value="IS_A" style="text;strokeColor=none;align=center;fillColor=none;html=1;verticalAlign=middle;whiteSpace=wrap;rounded=0;fontSize=12;" parent="1" vertex="1">
          <mxGeometry x="745" y="463.5" width="68" height="30.5" as="geometry" />
        </mxCell>
        <mxCell id="OUz7jEG2wL1sS6SU-Tpn-163" value="" style="edgeStyle=orthogonalEdgeStyle;rounded=0;orthogonalLoop=1;jettySize=auto;html=1;exitX=1;exitY=0.5;exitDx=0;exitDy=0;entryX=0.5;entryY=0;entryDx=0;entryDy=0;" parent="1" edge="1">
          <mxGeometry relative="1" as="geometry">
            <mxPoint x="151" y="193.77000000000012" as="targetPoint" />
            <mxPoint x="780" y="444.27" as="sourcePoint" />
            <Array as="points">
              <mxPoint x="780" y="425" />
              <mxPoint x="855" y="425" />
              <mxPoint x="855" y="114" />
              <mxPoint x="151" y="114" />
            </Array>
          </mxGeometry>
        </mxCell>
        <mxCell id="u5YFiVKEUONqyycsZPm--1" value="" style="rounded=0;whiteSpace=wrap;html=1;fillColor=#d5e8d4;strokeColor=#82b366;" parent="1" vertex="1">
          <mxGeometry x="105" y="196" width="90" height="38" as="geometry" />
        </mxCell>
        <mxCell id="u5YFiVKEUONqyycsZPm--2" value="Korisnik" style="text;align=center;html=1;verticalAlign=middle;whiteSpace=wrap;rounded=0;fontSize=12;" parent="1" vertex="1">
          <mxGeometry x="112" y="192.5" width="76" height="45" as="geometry" />
        </mxCell>
        <mxCell id="OUz7jEG2wL1sS6SU-Tpn-168" value="" style="ellipse;whiteSpace=wrap;html=1;fillColor=#f8cecc;strokeColor=#b85450;" parent="1" vertex="1">
          <mxGeometry x="1003" y="1015" width="124.5" height="60" as="geometry" />
        </mxCell>
        <mxCell id="OUz7jEG2wL1sS6SU-Tpn-169" value="izgubljeniSlucajevi" style="text;strokeColor=none;align=center;fillColor=none;html=1;verticalAlign=middle;whiteSpace=wrap;rounded=0;fontSize=12;" parent="1" vertex="1">
          <mxGeometry x="1035.25" y="1030" width="60" height="30" as="geometry" />
        </mxCell>
        <mxCell id="OUz7jEG2wL1sS6SU-Tpn-170" value="" style="ellipse;whiteSpace=wrap;html=1;fillColor=#f8cecc;strokeColor=#b85450;" parent="1" vertex="1">
          <mxGeometry x="990.37" y="860" width="122.5" height="60" as="geometry" />
        </mxCell>
        <mxCell id="OUz7jEG2wL1sS6SU-Tpn-171" value="pobedjeniSlucajevi" style="text;strokeColor=none;align=center;fillColor=none;html=1;verticalAlign=middle;whiteSpace=wrap;rounded=0;fontSize=12;" parent="1" vertex="1">
          <mxGeometry x="1020.37" y="875" width="60" height="30" as="geometry" />
        </mxCell>
        <mxCell id="OUz7jEG2wL1sS6SU-Tpn-172" value="" style="ellipse;whiteSpace=wrap;html=1;fillColor=#f8cecc;strokeColor=#b85450;" parent="1" vertex="1">
          <mxGeometry x="990.37" y="934" width="127.75" height="56" as="geometry" />
        </mxCell>
        <mxCell id="OUz7jEG2wL1sS6SU-Tpn-173" value="reseniNagodbom" style="text;strokeColor=none;align=center;fillColor=none;html=1;verticalAlign=middle;whiteSpace=wrap;rounded=0;fontSize=12;" parent="1" vertex="1">
          <mxGeometry x="1024.25" y="945" width="60" height="30" as="geometry" />
        </mxCell>
        <mxCell id="OUz7jEG2wL1sS6SU-Tpn-174" value="" style="ellipse;whiteSpace=wrap;html=1;fillColor=#f8cecc;strokeColor=#b85450;" parent="1" vertex="1">
          <mxGeometry x="1315.5" y="668" width="95" height="60" as="geometry" />
        </mxCell>
        <mxCell id="OUz7jEG2wL1sS6SU-Tpn-175" value="telefon" style="text;strokeColor=none;align=center;fillColor=none;html=1;verticalAlign=middle;whiteSpace=wrap;rounded=0;fontSize=12;" parent="1" vertex="1">
          <mxGeometry x="1333" y="683" width="60" height="30" as="geometry" />
        </mxCell>
        <mxCell id="OUz7jEG2wL1sS6SU-Tpn-176" value="" style="ellipse;whiteSpace=wrap;html=1;fillColor=#f8cecc;strokeColor=#b85450;" parent="1" vertex="1">
          <mxGeometry x="1200" y="668" width="95" height="60" as="geometry" />
        </mxCell>
        <mxCell id="OUz7jEG2wL1sS6SU-Tpn-177" value="email" style="text;strokeColor=none;align=center;fillColor=none;html=1;verticalAlign=middle;whiteSpace=wrap;rounded=0;fontSize=12;" parent="1" vertex="1">
          <mxGeometry x="1217.5" y="687" width="60" height="26" as="geometry" />
        </mxCell>
        <mxCell id="OUz7jEG2wL1sS6SU-Tpn-184" value="" style="ellipse;whiteSpace=wrap;html=1;fillColor=#f8cecc;strokeColor=#b85450;" parent="1" vertex="1">
          <mxGeometry x="908" y="759" width="95" height="60" as="geometry" />
        </mxCell>
        <mxCell id="OUz7jEG2wL1sS6SU-Tpn-185" value="ulica" style="text;strokeColor=none;align=center;fillColor=none;html=1;verticalAlign=middle;whiteSpace=wrap;rounded=0;fontSize=12;" parent="1" vertex="1">
          <mxGeometry x="925.5" y="776" width="60" height="26" as="geometry" />
        </mxCell>
        <mxCell id="OUz7jEG2wL1sS6SU-Tpn-186" value="" style="ellipse;whiteSpace=wrap;html=1;fillColor=#f8cecc;strokeColor=#b85450;" parent="1" vertex="1">
          <mxGeometry x="1070.5" y="776" width="95" height="60" as="geometry" />
        </mxCell>
        <mxCell id="OUz7jEG2wL1sS6SU-Tpn-187" value="grad" style="text;strokeColor=none;align=center;fillColor=none;html=1;verticalAlign=middle;whiteSpace=wrap;rounded=0;fontSize=12;" parent="1" vertex="1">
          <mxGeometry x="1088" y="791" width="60" height="30" as="geometry" />
        </mxCell>
        <mxCell id="OUz7jEG2wL1sS6SU-Tpn-190" value="" style="ellipse;whiteSpace=wrap;html=1;fillColor=#f8cecc;strokeColor=#b85450;" parent="1" vertex="1">
          <mxGeometry x="1070.5" y="668" width="95" height="60" as="geometry" />
        </mxCell>
        <mxCell id="OUz7jEG2wL1sS6SU-Tpn-191" value="specijalizacija" style="text;strokeColor=none;align=center;fillColor=none;html=1;verticalAlign=middle;whiteSpace=wrap;rounded=0;fontSize=12;" parent="1" vertex="1">
          <mxGeometry x="1088" y="683" width="60" height="30" as="geometry" />
        </mxCell>
        <mxCell id="OUz7jEG2wL1sS6SU-Tpn-197" style="edgeStyle=orthogonalEdgeStyle;rounded=0;orthogonalLoop=1;jettySize=auto;html=1;exitX=0.5;exitY=1;exitDx=0;exitDy=0;entryX=0.331;entryY=0.069;entryDx=0;entryDy=0;entryPerimeter=0;" parent="1" source="OUz7jEG2wL1sS6SU-Tpn-126" target="OUz7jEG2wL1sS6SU-Tpn-131" edge="1">
          <mxGeometry relative="1" as="geometry" />
        </mxCell>
        <mxCell id="OUz7jEG2wL1sS6SU-Tpn-198" style="edgeStyle=orthogonalEdgeStyle;rounded=0;orthogonalLoop=1;jettySize=auto;html=1;exitX=0.75;exitY=1;exitDx=0;exitDy=0;entryX=0.336;entryY=0.043;entryDx=0;entryDy=0;entryPerimeter=0;" parent="1" source="OUz7jEG2wL1sS6SU-Tpn-126" target="OUz7jEG2wL1sS6SU-Tpn-129" edge="1">
          <mxGeometry relative="1" as="geometry">
            <Array as="points">
              <mxPoint x="888" y="646" />
              <mxPoint x="982" y="646" />
            </Array>
          </mxGeometry>
        </mxCell>
        <mxCell id="OUz7jEG2wL1sS6SU-Tpn-210" style="edgeStyle=orthogonalEdgeStyle;rounded=0;orthogonalLoop=1;jettySize=auto;html=1;exitX=1;exitY=0;exitDx=0;exitDy=0;entryX=0.396;entryY=0.004;entryDx=0;entryDy=0;entryPerimeter=0;" parent="1" source="OUz7jEG2wL1sS6SU-Tpn-123" target="OUz7jEG2wL1sS6SU-Tpn-184" edge="1">
          <mxGeometry relative="1" as="geometry">
            <Array as="points">
              <mxPoint x="946" y="569" />
            </Array>
          </mxGeometry>
        </mxCell>
        <mxCell id="OUz7jEG2wL1sS6SU-Tpn-212" style="edgeStyle=orthogonalEdgeStyle;rounded=0;orthogonalLoop=1;jettySize=auto;html=1;exitX=0.75;exitY=1;exitDx=0;exitDy=0;entryX=0;entryY=0;entryDx=0;entryDy=0;" parent="1" source="OUz7jEG2wL1sS6SU-Tpn-222" target="OUz7jEG2wL1sS6SU-Tpn-214" edge="1">
          <mxGeometry relative="1" as="geometry" />
        </mxCell>
        <mxCell id="OUz7jEG2wL1sS6SU-Tpn-213" value="" style="ellipse;whiteSpace=wrap;html=1;fillColor=#f8cecc;strokeColor=#b85450;" parent="1" vertex="1">
          <mxGeometry x="1393" y="425" width="88" height="60" as="geometry" />
        </mxCell>
        <mxCell id="OUz7jEG2wL1sS6SU-Tpn-214" value="" style="ellipse;whiteSpace=wrap;html=1;fillColor=#f8cecc;strokeColor=#b85450;" parent="1" vertex="1">
          <mxGeometry x="1540" y="425" width="95" height="60" as="geometry" />
        </mxCell>
        <mxCell id="OUz7jEG2wL1sS6SU-Tpn-215" value="protivnikID" style="text;strokeColor=none;align=center;fillColor=none;html=1;verticalAlign=middle;whiteSpace=wrap;rounded=0;fontSize=12;" parent="1" vertex="1">
          <mxGeometry x="1407" y="440" width="60" height="30" as="geometry" />
        </mxCell>
        <mxCell id="OUz7jEG2wL1sS6SU-Tpn-216" value="slucajID" style="text;strokeColor=none;align=center;fillColor=none;html=1;verticalAlign=middle;whiteSpace=wrap;rounded=0;fontSize=12;" parent="1" vertex="1">
          <mxGeometry x="1557.5" y="440" width="60" height="30" as="geometry" />
        </mxCell>
        <mxCell id="OUz7jEG2wL1sS6SU-Tpn-217" value="" style="rhombus;whiteSpace=wrap;html=1;fillColor=#fff2cc;strokeColor=#d6b656;" parent="1" vertex="1">
          <mxGeometry x="1635" y="330" width="114" height="80" as="geometry" />
        </mxCell>
        <mxCell id="OUz7jEG2wL1sS6SU-Tpn-218" value="Je_Protivnik_Za" style="text;strokeColor=none;align=center;fillColor=none;html=1;verticalAlign=middle;whiteSpace=wrap;rounded=0;fontSize=12;" parent="1" vertex="1">
          <mxGeometry x="1662" y="355" width="60" height="30" as="geometry" />
        </mxCell>
        <mxCell id="OUz7jEG2wL1sS6SU-Tpn-219" style="edgeStyle=orthogonalEdgeStyle;rounded=0;orthogonalLoop=1;jettySize=auto;html=1;exitX=0.25;exitY=1;exitDx=0;exitDy=0;entryX=0.61;entryY=0.04;entryDx=0;entryDy=0;entryPerimeter=0;" parent="1" source="OUz7jEG2wL1sS6SU-Tpn-222" target="OUz7jEG2wL1sS6SU-Tpn-213" edge="1">
          <mxGeometry relative="1" as="geometry" />
        </mxCell>
        <mxCell id="OUz7jEG2wL1sS6SU-Tpn-220" style="edgeStyle=orthogonalEdgeStyle;rounded=0;orthogonalLoop=1;jettySize=auto;html=1;exitX=1;exitY=0.5;exitDx=0;exitDy=0;" parent="1" source="OUz7jEG2wL1sS6SU-Tpn-222" edge="1">
          <mxGeometry relative="1" as="geometry">
            <mxPoint x="1497" y="331.5" as="targetPoint" />
            <mxPoint x="2115.5" y="568" as="sourcePoint" />
            <Array as="points">
              <mxPoint x="1458" y="337.5" />
              <mxPoint x="1458" y="331.5" />
            </Array>
          </mxGeometry>
        </mxCell>
        <mxCell id="OUz7jEG2wL1sS6SU-Tpn-221" value="" style="rounded=0;whiteSpace=wrap;html=1;fillColor=#d5e8d4;strokeColor=#82b366;" parent="1" vertex="1">
          <mxGeometry x="1450" y="318.5" width="90" height="38" as="geometry" />
        </mxCell>
        <mxCell id="OUz7jEG2wL1sS6SU-Tpn-222" value="Protiv" style="text;align=center;html=1;verticalAlign=middle;whiteSpace=wrap;rounded=0;fontSize=12;" parent="1" vertex="1">
          <mxGeometry x="1457" y="315" width="76" height="45" as="geometry" />
        </mxCell>
        <mxCell id="OUz7jEG2wL1sS6SU-Tpn-223" value="" style="rounded=0;whiteSpace=wrap;html=1;fillColor=#d5e8d4;strokeColor=#82b366;" parent="1" vertex="1">
          <mxGeometry x="1624.5" y="586" width="101" height="44" as="geometry" />
        </mxCell>
        <mxCell id="OUz7jEG2wL1sS6SU-Tpn-240" style="edgeStyle=orthogonalEdgeStyle;rounded=0;orthogonalLoop=1;jettySize=auto;html=1;exitX=1;exitY=1;exitDx=0;exitDy=0;entryX=0.412;entryY=-0.004;entryDx=0;entryDy=0;entryPerimeter=0;" parent="1" source="OUz7jEG2wL1sS6SU-Tpn-226" target="OUz7jEG2wL1sS6SU-Tpn-238" edge="1">
          <mxGeometry relative="1" as="geometry">
            <mxPoint x="1900" y="646" as="targetPoint" />
          </mxGeometry>
        </mxCell>
        <mxCell id="OUz7jEG2wL1sS6SU-Tpn-226" value="SudskoRociste" style="text;align=center;html=1;verticalAlign=middle;whiteSpace=wrap;rounded=0;fontSize=12;" parent="1" vertex="1">
          <mxGeometry x="1635" y="588" width="80" height="40" as="geometry" />
        </mxCell>
        <mxCell id="OUz7jEG2wL1sS6SU-Tpn-227" value="" style="ellipse;whiteSpace=wrap;html=1;fillColor=#f8cecc;strokeColor=#b85450;" parent="1" vertex="1">
          <mxGeometry x="1540" y="685" width="95" height="60" as="geometry" />
        </mxCell>
        <mxCell id="OUz7jEG2wL1sS6SU-Tpn-228" value="slucajID" style="text;strokeColor=none;align=center;fillColor=none;html=1;verticalAlign=middle;whiteSpace=wrap;rounded=0;fontSize=12;" parent="1" vertex="1">
          <mxGeometry x="1557.5" y="700" width="60" height="30" as="geometry" />
        </mxCell>
        <mxCell id="OUz7jEG2wL1sS6SU-Tpn-229" value="" style="ellipse;whiteSpace=wrap;html=1;fillColor=#f8cecc;strokeColor=#b85450;" parent="1" vertex="1">
          <mxGeometry x="1757.5" y="685" width="95" height="60" as="geometry" />
        </mxCell>
        <mxCell id="OUz7jEG2wL1sS6SU-Tpn-230" value="sudnica" style="text;strokeColor=none;align=center;fillColor=none;html=1;verticalAlign=middle;whiteSpace=wrap;rounded=0;fontSize=12;" parent="1" vertex="1">
          <mxGeometry x="1775" y="700" width="60" height="30" as="geometry" />
        </mxCell>
        <mxCell id="OUz7jEG2wL1sS6SU-Tpn-231" value="" style="ellipse;whiteSpace=wrap;html=1;fillColor=#f8cecc;strokeColor=#b85450;" parent="1" vertex="1">
          <mxGeometry x="1643.5" y="685" width="95" height="60" as="geometry" />
        </mxCell>
        <mxCell id="OUz7jEG2wL1sS6SU-Tpn-232" value="vreme" style="text;strokeColor=none;align=center;fillColor=none;html=1;verticalAlign=middle;whiteSpace=wrap;rounded=0;fontSize=12;" parent="1" vertex="1">
          <mxGeometry x="1661" y="700" width="60" height="30" as="geometry" />
        </mxCell>
        <mxCell id="OUz7jEG2wL1sS6SU-Tpn-233" style="edgeStyle=orthogonalEdgeStyle;rounded=0;orthogonalLoop=1;jettySize=auto;html=1;exitX=0.25;exitY=1;exitDx=0;exitDy=0;entryX=0.714;entryY=0.085;entryDx=0;entryDy=0;entryPerimeter=0;" parent="1" source="OUz7jEG2wL1sS6SU-Tpn-226" target="OUz7jEG2wL1sS6SU-Tpn-227" edge="1">
          <mxGeometry relative="1" as="geometry" />
        </mxCell>
        <mxCell id="OUz7jEG2wL1sS6SU-Tpn-234" style="edgeStyle=orthogonalEdgeStyle;rounded=0;orthogonalLoop=1;jettySize=auto;html=1;exitX=0.5;exitY=1;exitDx=0;exitDy=0;entryX=0.368;entryY=0.098;entryDx=0;entryDy=0;entryPerimeter=0;" parent="1" source="OUz7jEG2wL1sS6SU-Tpn-226" target="OUz7jEG2wL1sS6SU-Tpn-231" edge="1">
          <mxGeometry relative="1" as="geometry" />
        </mxCell>
        <mxCell id="OUz7jEG2wL1sS6SU-Tpn-235" style="edgeStyle=orthogonalEdgeStyle;rounded=0;orthogonalLoop=1;jettySize=auto;html=1;exitX=0.75;exitY=1;exitDx=0;exitDy=0;entryX=0.423;entryY=0.007;entryDx=0;entryDy=0;entryPerimeter=0;" parent="1" source="OUz7jEG2wL1sS6SU-Tpn-226" target="OUz7jEG2wL1sS6SU-Tpn-229" edge="1">
          <mxGeometry relative="1" as="geometry">
            <Array as="points">
              <mxPoint x="1695" y="665" />
              <mxPoint x="1798" y="665" />
            </Array>
          </mxGeometry>
        </mxCell>
        <mxCell id="OUz7jEG2wL1sS6SU-Tpn-238" value="" style="ellipse;whiteSpace=wrap;html=1;fillColor=#f8cecc;strokeColor=#b85450;" parent="1" vertex="1">
          <mxGeometry x="1862" y="684" width="171" height="59" as="geometry" />
        </mxCell>
        <mxCell id="OUz7jEG2wL1sS6SU-Tpn-239" value="datumSledecegRocista" style="text;strokeColor=none;align=center;fillColor=none;html=1;verticalAlign=middle;whiteSpace=wrap;rounded=0;fontSize=12;" parent="1" vertex="1">
          <mxGeometry x="1917.5" y="698" width="60" height="30" as="geometry" />
        </mxCell>
        <mxCell id="OUz7jEG2wL1sS6SU-Tpn-241" value="" style="rounded=0;whiteSpace=wrap;html=1;fillColor=#d5e8d4;strokeColor=#82b366;" parent="1" vertex="1">
          <mxGeometry x="2288.5" y="589" width="101" height="44" as="geometry" />
        </mxCell>
        <mxCell id="OUz7jEG2wL1sS6SU-Tpn-257" style="edgeStyle=orthogonalEdgeStyle;rounded=0;orthogonalLoop=1;jettySize=auto;html=1;exitX=0;exitY=1;exitDx=0;exitDy=0;" parent="1" source="OUz7jEG2wL1sS6SU-Tpn-243" edge="1">
          <mxGeometry relative="1" as="geometry">
            <mxPoint x="2261" y="684" as="targetPoint" />
          </mxGeometry>
        </mxCell>
        <mxCell id="OUz7jEG2wL1sS6SU-Tpn-259" style="edgeStyle=orthogonalEdgeStyle;rounded=0;orthogonalLoop=1;jettySize=auto;html=1;exitX=0.5;exitY=1;exitDx=0;exitDy=0;entryX=0;entryY=0;entryDx=0;entryDy=0;" parent="1" source="OUz7jEG2wL1sS6SU-Tpn-243" target="OUz7jEG2wL1sS6SU-Tpn-246" edge="1">
          <mxGeometry relative="1" as="geometry" />
        </mxCell>
        <mxCell id="OUz7jEG2wL1sS6SU-Tpn-261" style="edgeStyle=orthogonalEdgeStyle;rounded=0;orthogonalLoop=1;jettySize=auto;html=1;exitX=1;exitY=1;exitDx=0;exitDy=0;" parent="1" source="OUz7jEG2wL1sS6SU-Tpn-243" edge="1">
          <mxGeometry relative="1" as="geometry">
            <mxPoint x="2755" y="684" as="targetPoint" />
          </mxGeometry>
        </mxCell>
        <mxCell id="OUz7jEG2wL1sS6SU-Tpn-243" value="PravniDokumenti" style="text;align=center;html=1;verticalAlign=middle;whiteSpace=wrap;rounded=0;fontSize=12;" parent="1" vertex="1">
          <mxGeometry x="2299" y="591" width="80" height="40" as="geometry" />
        </mxCell>
        <mxCell id="OUz7jEG2wL1sS6SU-Tpn-244" value="" style="ellipse;whiteSpace=wrap;html=1;fillColor=#f8cecc;strokeColor=#b85450;" parent="1" vertex="1">
          <mxGeometry x="2204" y="683" width="95" height="60" as="geometry" />
        </mxCell>
        <mxCell id="OUz7jEG2wL1sS6SU-Tpn-245" value="slucajID" style="text;strokeColor=none;align=center;fillColor=none;html=1;verticalAlign=middle;whiteSpace=wrap;rounded=0;fontSize=12;" parent="1" vertex="1">
          <mxGeometry x="2316.5" y="729" width="60" height="30" as="geometry" />
        </mxCell>
        <mxCell id="OUz7jEG2wL1sS6SU-Tpn-246" value="" style="ellipse;whiteSpace=wrap;html=1;fillColor=#f8cecc;strokeColor=#b85450;" parent="1" vertex="1">
          <mxGeometry x="2431" y="718" width="95" height="60" as="geometry" />
        </mxCell>
        <mxCell id="OUz7jEG2wL1sS6SU-Tpn-247" value="datumKreiranja" style="text;strokeColor=none;align=center;fillColor=none;html=1;verticalAlign=middle;whiteSpace=wrap;rounded=0;fontSize=12;" parent="1" vertex="1">
          <mxGeometry x="2448.5" y="733" width="60" height="30" as="geometry" />
        </mxCell>
        <mxCell id="OUz7jEG2wL1sS6SU-Tpn-249" value="dokumentID" style="text;strokeColor=none;align=center;fillColor=none;html=1;verticalAlign=middle;whiteSpace=wrap;rounded=0;fontSize=12;" parent="1" vertex="1">
          <mxGeometry x="2221.5" y="698" width="60" height="30" as="geometry" />
        </mxCell>
        <mxCell id="OUz7jEG2wL1sS6SU-Tpn-253" value="" style="ellipse;whiteSpace=wrap;html=1;fillColor=#f8cecc;strokeColor=#b85450;" parent="1" vertex="1">
          <mxGeometry x="2526" y="703.5" width="171" height="59" as="geometry" />
        </mxCell>
        <mxCell id="OUz7jEG2wL1sS6SU-Tpn-254" value="datumPoslednjeIzmene" style="text;strokeColor=none;align=center;fillColor=none;html=1;verticalAlign=middle;whiteSpace=wrap;rounded=0;fontSize=12;" parent="1" vertex="1">
          <mxGeometry x="2581.5" y="717.5" width="60" height="30" as="geometry" />
        </mxCell>
        <mxCell id="OUz7jEG2wL1sS6SU-Tpn-255" value="" style="ellipse;whiteSpace=wrap;html=1;fillColor=#f8cecc;strokeColor=#b85450;" parent="1" vertex="1">
          <mxGeometry x="2717" y="685" width="95" height="60" as="geometry" />
        </mxCell>
        <mxCell id="OUz7jEG2wL1sS6SU-Tpn-256" value="tip" style="text;strokeColor=none;align=center;fillColor=none;html=1;verticalAlign=middle;whiteSpace=wrap;rounded=0;fontSize=12;" parent="1" vertex="1">
          <mxGeometry x="2734.5" y="700" width="60" height="30" as="geometry" />
        </mxCell>
        <mxCell id="OUz7jEG2wL1sS6SU-Tpn-258" style="edgeStyle=orthogonalEdgeStyle;rounded=0;orthogonalLoop=1;jettySize=auto;html=1;exitX=0.25;exitY=1;exitDx=0;exitDy=0;" parent="1" source="OUz7jEG2wL1sS6SU-Tpn-243" edge="1">
          <mxGeometry relative="1" as="geometry">
            <mxPoint x="2329" y="722" as="targetPoint" />
          </mxGeometry>
        </mxCell>
        <mxCell id="OUz7jEG2wL1sS6SU-Tpn-260" style="edgeStyle=orthogonalEdgeStyle;rounded=0;orthogonalLoop=1;jettySize=auto;html=1;exitX=0.75;exitY=1;exitDx=0;exitDy=0;entryX=0.415;entryY=0.083;entryDx=0;entryDy=0;entryPerimeter=0;" parent="1" source="OUz7jEG2wL1sS6SU-Tpn-243" target="OUz7jEG2wL1sS6SU-Tpn-253" edge="1">
          <mxGeometry relative="1" as="geometry" />
        </mxCell>
        <mxCell id="OUz7jEG2wL1sS6SU-Tpn-262" value="" style="ellipse;whiteSpace=wrap;html=1;fillColor=#f8cecc;strokeColor=#b85450;" parent="1" vertex="1">
          <mxGeometry x="1700" y="1064" width="95" height="56" as="geometry" />
        </mxCell>
        <mxCell id="OUz7jEG2wL1sS6SU-Tpn-283" style="edgeStyle=orthogonalEdgeStyle;rounded=0;orthogonalLoop=1;jettySize=auto;html=1;exitX=0;exitY=0.5;exitDx=0;exitDy=0;entryX=1;entryY=0.5;entryDx=0;entryDy=0;" parent="1" source="OUz7jEG2wL1sS6SU-Tpn-263" target="OUz7jEG2wL1sS6SU-Tpn-279" edge="1">
          <mxGeometry relative="1" as="geometry" />
        </mxCell>
        <mxCell id="OUz7jEG2wL1sS6SU-Tpn-284" style="edgeStyle=orthogonalEdgeStyle;rounded=0;orthogonalLoop=1;jettySize=auto;html=1;exitX=1;exitY=0.5;exitDx=0;exitDy=0;entryX=0;entryY=0.5;entryDx=0;entryDy=0;" parent="1" source="OUz7jEG2wL1sS6SU-Tpn-263" target="OUz7jEG2wL1sS6SU-Tpn-281" edge="1">
          <mxGeometry relative="1" as="geometry" />
        </mxCell>
        <mxCell id="OUz7jEG2wL1sS6SU-Tpn-263" value="" style="rounded=0;whiteSpace=wrap;html=1;fillColor=#d5e8d4;strokeColor=#82b366;" parent="1" vertex="1">
          <mxGeometry x="1689.5" y="931" width="101" height="44" as="geometry" />
        </mxCell>
        <mxCell id="OUz7jEG2wL1sS6SU-Tpn-264" style="edgeStyle=orthogonalEdgeStyle;rounded=0;orthogonalLoop=1;jettySize=auto;html=1;exitX=0;exitY=1;exitDx=0;exitDy=0;" parent="1" source="OUz7jEG2wL1sS6SU-Tpn-267" edge="1">
          <mxGeometry relative="1" as="geometry">
            <mxPoint x="1662" y="1026" as="targetPoint" />
          </mxGeometry>
        </mxCell>
        <mxCell id="OUz7jEG2wL1sS6SU-Tpn-265" style="edgeStyle=orthogonalEdgeStyle;rounded=0;orthogonalLoop=1;jettySize=auto;html=1;exitX=0.5;exitY=1;exitDx=0;exitDy=0;entryX=0;entryY=0;entryDx=0;entryDy=0;" parent="1" source="OUz7jEG2wL1sS6SU-Tpn-267" target="OUz7jEG2wL1sS6SU-Tpn-270" edge="1">
          <mxGeometry relative="1" as="geometry" />
        </mxCell>
        <mxCell id="OUz7jEG2wL1sS6SU-Tpn-266" style="edgeStyle=orthogonalEdgeStyle;rounded=0;orthogonalLoop=1;jettySize=auto;html=1;exitX=1;exitY=1;exitDx=0;exitDy=0;" parent="1" source="OUz7jEG2wL1sS6SU-Tpn-267" edge="1">
          <mxGeometry relative="1" as="geometry">
            <mxPoint x="2156" y="1026" as="targetPoint" />
          </mxGeometry>
        </mxCell>
        <mxCell id="OUz7jEG2wL1sS6SU-Tpn-323" style="edgeStyle=orthogonalEdgeStyle;rounded=0;orthogonalLoop=1;jettySize=auto;html=1;exitX=0.5;exitY=0;exitDx=0;exitDy=0;entryX=1;entryY=0.5;entryDx=0;entryDy=0;" parent="1" source="OUz7jEG2wL1sS6SU-Tpn-267" target="OUz7jEG2wL1sS6SU-Tpn-321" edge="1">
          <mxGeometry relative="1" as="geometry" />
        </mxCell>
        <mxCell id="OUz7jEG2wL1sS6SU-Tpn-328" style="edgeStyle=orthogonalEdgeStyle;rounded=0;orthogonalLoop=1;jettySize=auto;html=1;exitX=0.75;exitY=0;exitDx=0;exitDy=0;" parent="1" source="OUz7jEG2wL1sS6SU-Tpn-267" edge="1">
          <mxGeometry relative="1" as="geometry">
            <mxPoint x="2090" y="665" as="targetPoint" />
          </mxGeometry>
        </mxCell>
        <mxCell id="OUz7jEG2wL1sS6SU-Tpn-340" style="edgeStyle=orthogonalEdgeStyle;rounded=0;orthogonalLoop=1;jettySize=auto;html=1;exitX=0;exitY=0;exitDx=0;exitDy=0;entryX=0.5;entryY=1;entryDx=0;entryDy=0;" parent="1" source="OUz7jEG2wL1sS6SU-Tpn-267" target="OUz7jEG2wL1sS6SU-Tpn-337" edge="1">
          <mxGeometry relative="1" as="geometry">
            <Array as="points">
              <mxPoint x="1311" y="933" />
              <mxPoint x="1311" y="587" />
              <mxPoint x="1259" y="587" />
            </Array>
          </mxGeometry>
        </mxCell>
        <mxCell id="OUz7jEG2wL1sS6SU-Tpn-345" style="edgeStyle=orthogonalEdgeStyle;rounded=0;orthogonalLoop=1;jettySize=auto;html=1;exitX=1;exitY=0;exitDx=0;exitDy=0;entryX=0;entryY=0.5;entryDx=0;entryDy=0;" parent="1" source="OUz7jEG2wL1sS6SU-Tpn-267" target="OUz7jEG2wL1sS6SU-Tpn-343" edge="1">
          <mxGeometry relative="1" as="geometry" />
        </mxCell>
        <mxCell id="OUz7jEG2wL1sS6SU-Tpn-267" value="PravniSlucaj" style="text;align=center;html=1;verticalAlign=middle;whiteSpace=wrap;rounded=0;fontSize=12;" parent="1" vertex="1">
          <mxGeometry x="1700" y="933" width="80" height="40" as="geometry" />
        </mxCell>
        <mxCell id="OUz7jEG2wL1sS6SU-Tpn-268" value="" style="ellipse;whiteSpace=wrap;html=1;fillColor=#f8cecc;strokeColor=#b85450;" parent="1" vertex="1">
          <mxGeometry x="1605" y="1025" width="95" height="60" as="geometry" />
        </mxCell>
        <mxCell id="OUz7jEG2wL1sS6SU-Tpn-269" value="slucajID" style="text;strokeColor=none;align=center;fillColor=none;html=1;verticalAlign=middle;whiteSpace=wrap;rounded=0;fontSize=12;" parent="1" vertex="1">
          <mxGeometry x="1622.5" y="1042" width="60" height="30" as="geometry" />
        </mxCell>
        <mxCell id="OUz7jEG2wL1sS6SU-Tpn-270" value="" style="ellipse;whiteSpace=wrap;html=1;fillColor=#f8cecc;strokeColor=#b85450;" parent="1" vertex="1">
          <mxGeometry x="1814" y="1064" width="113" height="56" as="geometry" />
        </mxCell>
        <mxCell id="OUz7jEG2wL1sS6SU-Tpn-271" value="poslednjaAktivnost" style="text;strokeColor=none;align=center;fillColor=none;html=1;verticalAlign=middle;whiteSpace=wrap;rounded=0;fontSize=12;" parent="1" vertex="1">
          <mxGeometry x="1840.5" y="1074.5" width="60" height="30" as="geometry" />
        </mxCell>
        <mxCell id="OUz7jEG2wL1sS6SU-Tpn-272" value="tuzilac" style="text;strokeColor=none;align=center;fillColor=none;html=1;verticalAlign=middle;whiteSpace=wrap;rounded=0;fontSize=12;" parent="1" vertex="1">
          <mxGeometry x="1717.5" y="1077" width="60" height="30" as="geometry" />
        </mxCell>
        <mxCell id="OUz7jEG2wL1sS6SU-Tpn-273" value="" style="ellipse;whiteSpace=wrap;html=1;fillColor=#f8cecc;strokeColor=#b85450;" parent="1" vertex="1">
          <mxGeometry x="1953.5" y="1046.5" width="115" height="40.5" as="geometry" />
        </mxCell>
        <mxCell id="OUz7jEG2wL1sS6SU-Tpn-274" value="opis" style="text;strokeColor=none;align=center;fillColor=none;html=1;verticalAlign=middle;whiteSpace=wrap;rounded=0;fontSize=12;" parent="1" vertex="1">
          <mxGeometry x="1981" y="1047" width="60" height="30" as="geometry" />
        </mxCell>
        <mxCell id="OUz7jEG2wL1sS6SU-Tpn-275" value="" style="ellipse;whiteSpace=wrap;html=1;fillColor=#f8cecc;strokeColor=#b85450;" parent="1" vertex="1">
          <mxGeometry x="2118" y="1026" width="114" height="61" as="geometry" />
        </mxCell>
        <mxCell id="OUz7jEG2wL1sS6SU-Tpn-276" value="datumPodnosenja" style="text;strokeColor=none;align=center;fillColor=none;html=1;verticalAlign=middle;whiteSpace=wrap;rounded=0;fontSize=12;" parent="1" vertex="1">
          <mxGeometry x="2145" y="1040" width="60" height="30" as="geometry" />
        </mxCell>
        <mxCell id="OUz7jEG2wL1sS6SU-Tpn-277" style="edgeStyle=orthogonalEdgeStyle;rounded=0;orthogonalLoop=1;jettySize=auto;html=1;exitX=0.25;exitY=1;exitDx=0;exitDy=0;" parent="1" source="OUz7jEG2wL1sS6SU-Tpn-267" edge="1">
          <mxGeometry relative="1" as="geometry">
            <mxPoint x="1730" y="1064" as="targetPoint" />
          </mxGeometry>
        </mxCell>
        <mxCell id="OUz7jEG2wL1sS6SU-Tpn-278" style="edgeStyle=orthogonalEdgeStyle;rounded=0;orthogonalLoop=1;jettySize=auto;html=1;exitX=0.75;exitY=1;exitDx=0;exitDy=0;entryX=0.415;entryY=0.083;entryDx=0;entryDy=0;entryPerimeter=0;" parent="1" source="OUz7jEG2wL1sS6SU-Tpn-267" target="OUz7jEG2wL1sS6SU-Tpn-273" edge="1">
          <mxGeometry relative="1" as="geometry" />
        </mxCell>
        <mxCell id="OUz7jEG2wL1sS6SU-Tpn-279" value="" style="ellipse;whiteSpace=wrap;html=1;fillColor=#f8cecc;strokeColor=#b85450;" parent="1" vertex="1">
          <mxGeometry x="1491" y="950" width="114" height="44" as="geometry" />
        </mxCell>
        <mxCell id="OUz7jEG2wL1sS6SU-Tpn-280" value="trajanje" style="text;strokeColor=none;align=center;fillColor=none;html=1;verticalAlign=middle;whiteSpace=wrap;rounded=0;fontSize=12;" parent="1" vertex="1">
          <mxGeometry x="1518" y="957" width="60" height="30" as="geometry" />
        </mxCell>
        <mxCell id="OUz7jEG2wL1sS6SU-Tpn-281" value="" style="ellipse;whiteSpace=wrap;html=1;fillColor=#f8cecc;strokeColor=#b85450;" parent="1" vertex="1">
          <mxGeometry x="1867" y="931" width="118" height="44" as="geometry" />
        </mxCell>
        <mxCell id="OUz7jEG2wL1sS6SU-Tpn-282" value="status" style="text;strokeColor=none;align=center;fillColor=none;html=1;verticalAlign=middle;whiteSpace=wrap;rounded=0;fontSize=12;" parent="1" vertex="1">
          <mxGeometry x="1896" y="938" width="60" height="30" as="geometry" />
        </mxCell>
        <mxCell id="OUz7jEG2wL1sS6SU-Tpn-285" value="" style="ellipse;whiteSpace=wrap;html=1;fillColor=#f8cecc;strokeColor=#b85450;" parent="1" vertex="1">
          <mxGeometry x="2154.5" y="357.5" width="95" height="56" as="geometry" />
        </mxCell>
        <mxCell id="OUz7jEG2wL1sS6SU-Tpn-286" style="edgeStyle=orthogonalEdgeStyle;rounded=0;orthogonalLoop=1;jettySize=auto;html=1;exitX=0;exitY=0.5;exitDx=0;exitDy=0;entryX=1;entryY=0.5;entryDx=0;entryDy=0;" parent="1" source="OUz7jEG2wL1sS6SU-Tpn-288" target="OUz7jEG2wL1sS6SU-Tpn-304" edge="1">
          <mxGeometry relative="1" as="geometry" />
        </mxCell>
        <mxCell id="OUz7jEG2wL1sS6SU-Tpn-287" style="edgeStyle=orthogonalEdgeStyle;rounded=0;orthogonalLoop=1;jettySize=auto;html=1;exitX=1;exitY=0.5;exitDx=0;exitDy=0;entryX=0;entryY=0.5;entryDx=0;entryDy=0;" parent="1" source="OUz7jEG2wL1sS6SU-Tpn-288" target="OUz7jEG2wL1sS6SU-Tpn-306" edge="1">
          <mxGeometry relative="1" as="geometry" />
        </mxCell>
        <mxCell id="OUz7jEG2wL1sS6SU-Tpn-311" style="edgeStyle=orthogonalEdgeStyle;rounded=0;orthogonalLoop=1;jettySize=auto;html=1;exitX=0;exitY=0.75;exitDx=0;exitDy=0;entryX=0.5;entryY=0;entryDx=0;entryDy=0;" parent="1" source="OUz7jEG2wL1sS6SU-Tpn-288" target="OUz7jEG2wL1sS6SU-Tpn-308" edge="1">
          <mxGeometry relative="1" as="geometry">
            <Array as="points">
              <mxPoint x="2014" y="258" />
              <mxPoint x="2014" y="441" />
            </Array>
          </mxGeometry>
        </mxCell>
        <mxCell id="OUz7jEG2wL1sS6SU-Tpn-317" style="edgeStyle=orthogonalEdgeStyle;rounded=0;orthogonalLoop=1;jettySize=auto;html=1;exitX=1;exitY=1;exitDx=0;exitDy=0;entryX=0;entryY=0.5;entryDx=0;entryDy=0;" parent="1" source="OUz7jEG2wL1sS6SU-Tpn-288" target="OUz7jEG2wL1sS6SU-Tpn-314" edge="1">
          <mxGeometry relative="1" as="geometry" />
        </mxCell>
        <mxCell id="OUz7jEG2wL1sS6SU-Tpn-318" style="edgeStyle=orthogonalEdgeStyle;rounded=0;orthogonalLoop=1;jettySize=auto;html=1;exitX=1;exitY=0;exitDx=0;exitDy=0;entryX=0;entryY=0.5;entryDx=0;entryDy=0;" parent="1" source="OUz7jEG2wL1sS6SU-Tpn-288" target="OUz7jEG2wL1sS6SU-Tpn-312" edge="1">
          <mxGeometry relative="1" as="geometry" />
        </mxCell>
        <mxCell id="OUz7jEG2wL1sS6SU-Tpn-288" value="" style="rounded=0;whiteSpace=wrap;html=1;fillColor=#d5e8d4;strokeColor=#82b366;" parent="1" vertex="1">
          <mxGeometry x="2144" y="224.5" width="101" height="44" as="geometry" />
        </mxCell>
        <mxCell id="OUz7jEG2wL1sS6SU-Tpn-289" style="edgeStyle=orthogonalEdgeStyle;rounded=0;orthogonalLoop=1;jettySize=auto;html=1;exitX=0;exitY=1;exitDx=0;exitDy=0;" parent="1" source="OUz7jEG2wL1sS6SU-Tpn-292" edge="1">
          <mxGeometry relative="1" as="geometry">
            <mxPoint x="2090" y="380" as="targetPoint" />
          </mxGeometry>
        </mxCell>
        <mxCell id="OUz7jEG2wL1sS6SU-Tpn-290" style="edgeStyle=orthogonalEdgeStyle;rounded=0;orthogonalLoop=1;jettySize=auto;html=1;exitX=0.5;exitY=1;exitDx=0;exitDy=0;entryX=0;entryY=0;entryDx=0;entryDy=0;" parent="1" source="OUz7jEG2wL1sS6SU-Tpn-292" target="OUz7jEG2wL1sS6SU-Tpn-295" edge="1">
          <mxGeometry relative="1" as="geometry" />
        </mxCell>
        <mxCell id="OUz7jEG2wL1sS6SU-Tpn-291" style="edgeStyle=orthogonalEdgeStyle;rounded=0;orthogonalLoop=1;jettySize=auto;html=1;exitX=1;exitY=1;exitDx=0;exitDy=0;" parent="1" source="OUz7jEG2wL1sS6SU-Tpn-292" edge="1">
          <mxGeometry relative="1" as="geometry">
            <mxPoint x="2610.5" y="319.5" as="targetPoint" />
          </mxGeometry>
        </mxCell>
        <mxCell id="OUz7jEG2wL1sS6SU-Tpn-319" style="edgeStyle=orthogonalEdgeStyle;rounded=0;orthogonalLoop=1;jettySize=auto;html=1;exitX=0.5;exitY=0;exitDx=0;exitDy=0;entryX=1;entryY=0.5;entryDx=0;entryDy=0;" parent="1" source="OUz7jEG2wL1sS6SU-Tpn-292" target="OUz7jEG2wL1sS6SU-Tpn-217" edge="1">
          <mxGeometry relative="1" as="geometry">
            <Array as="points">
              <mxPoint x="2195" y="207" />
              <mxPoint x="1824" y="207" />
              <mxPoint x="1824" y="370" />
            </Array>
          </mxGeometry>
        </mxCell>
        <mxCell id="OUz7jEG2wL1sS6SU-Tpn-292" value="Protivnik" style="text;align=center;html=1;verticalAlign=middle;whiteSpace=wrap;rounded=0;fontSize=12;" parent="1" vertex="1">
          <mxGeometry x="2154.5" y="226.5" width="80" height="40" as="geometry" />
        </mxCell>
        <mxCell id="OUz7jEG2wL1sS6SU-Tpn-293" value="" style="ellipse;whiteSpace=wrap;html=1;fillColor=#f8cecc;strokeColor=#b85450;" parent="1" vertex="1">
          <mxGeometry x="2050" y="380.5" width="95" height="60" as="geometry" />
        </mxCell>
        <mxCell id="OUz7jEG2wL1sS6SU-Tpn-294" value="protivnikID" style="text;strokeColor=none;align=center;fillColor=none;html=1;verticalAlign=middle;whiteSpace=wrap;rounded=0;fontSize=12;" parent="1" vertex="1">
          <mxGeometry x="2067.5" y="397.5" width="60" height="30" as="geometry" />
        </mxCell>
        <mxCell id="OUz7jEG2wL1sS6SU-Tpn-295" value="" style="ellipse;whiteSpace=wrap;html=1;fillColor=#f8cecc;strokeColor=#b85450;" parent="1" vertex="1">
          <mxGeometry x="2268.5" y="357.5" width="113" height="56" as="geometry" />
        </mxCell>
        <mxCell id="OUz7jEG2wL1sS6SU-Tpn-296" value="srednjeIme" style="text;strokeColor=none;align=center;fillColor=none;html=1;verticalAlign=middle;whiteSpace=wrap;rounded=0;fontSize=12;" parent="1" vertex="1">
          <mxGeometry x="2295" y="368" width="60" height="30" as="geometry" />
        </mxCell>
        <mxCell id="OUz7jEG2wL1sS6SU-Tpn-297" value="ime" style="text;strokeColor=none;align=center;fillColor=none;html=1;verticalAlign=middle;whiteSpace=wrap;rounded=0;fontSize=12;" parent="1" vertex="1">
          <mxGeometry x="2172" y="370.5" width="60" height="30" as="geometry" />
        </mxCell>
        <mxCell id="OUz7jEG2wL1sS6SU-Tpn-298" value="" style="ellipse;whiteSpace=wrap;html=1;fillColor=#f8cecc;strokeColor=#b85450;" parent="1" vertex="1">
          <mxGeometry x="2408" y="340" width="115" height="40.5" as="geometry" />
        </mxCell>
        <mxCell id="OUz7jEG2wL1sS6SU-Tpn-299" value="prezime" style="text;strokeColor=none;align=center;fillColor=none;html=1;verticalAlign=middle;whiteSpace=wrap;rounded=0;fontSize=12;" parent="1" vertex="1">
          <mxGeometry x="2435.5" y="347.5" width="60" height="30" as="geometry" />
        </mxCell>
        <mxCell id="OUz7jEG2wL1sS6SU-Tpn-300" value="" style="ellipse;whiteSpace=wrap;html=1;fillColor=#f8cecc;strokeColor=#b85450;" parent="1" vertex="1">
          <mxGeometry x="2572.5" y="319.5" width="114" height="61" as="geometry" />
        </mxCell>
        <mxCell id="OUz7jEG2wL1sS6SU-Tpn-301" value="email" style="text;strokeColor=none;align=center;fillColor=none;html=1;verticalAlign=middle;whiteSpace=wrap;rounded=0;fontSize=12;" parent="1" vertex="1">
          <mxGeometry x="2599.5" y="333.5" width="60" height="30" as="geometry" />
        </mxCell>
        <mxCell id="OUz7jEG2wL1sS6SU-Tpn-302" style="edgeStyle=orthogonalEdgeStyle;rounded=0;orthogonalLoop=1;jettySize=auto;html=1;exitX=0.25;exitY=1;exitDx=0;exitDy=0;" parent="1" source="OUz7jEG2wL1sS6SU-Tpn-292" edge="1">
          <mxGeometry relative="1" as="geometry">
            <mxPoint x="2184.5" y="357.5" as="targetPoint" />
          </mxGeometry>
        </mxCell>
        <mxCell id="OUz7jEG2wL1sS6SU-Tpn-303" style="edgeStyle=orthogonalEdgeStyle;rounded=0;orthogonalLoop=1;jettySize=auto;html=1;exitX=0.75;exitY=1;exitDx=0;exitDy=0;entryX=0.415;entryY=0.083;entryDx=0;entryDy=0;entryPerimeter=0;" parent="1" source="OUz7jEG2wL1sS6SU-Tpn-292" target="OUz7jEG2wL1sS6SU-Tpn-298" edge="1">
          <mxGeometry relative="1" as="geometry" />
        </mxCell>
        <mxCell id="OUz7jEG2wL1sS6SU-Tpn-304" value="" style="ellipse;whiteSpace=wrap;html=1;fillColor=#f8cecc;strokeColor=#b85450;" parent="1" vertex="1">
          <mxGeometry x="1890.5" y="219" width="114" height="44" as="geometry" />
        </mxCell>
        <mxCell id="OUz7jEG2wL1sS6SU-Tpn-305" value="ulica" style="text;strokeColor=none;align=center;fillColor=none;html=1;verticalAlign=middle;whiteSpace=wrap;rounded=0;fontSize=12;" parent="1" vertex="1">
          <mxGeometry x="1917.5" y="226" width="60" height="30" as="geometry" />
        </mxCell>
        <mxCell id="OUz7jEG2wL1sS6SU-Tpn-306" value="" style="ellipse;whiteSpace=wrap;html=1;fillColor=#f8cecc;strokeColor=#b85450;" parent="1" vertex="1">
          <mxGeometry x="2317.5" y="201" width="118" height="44" as="geometry" />
        </mxCell>
        <mxCell id="OUz7jEG2wL1sS6SU-Tpn-307" value="telefon" style="text;strokeColor=none;align=center;fillColor=none;html=1;verticalAlign=middle;whiteSpace=wrap;rounded=0;fontSize=12;" parent="1" vertex="1">
          <mxGeometry x="2346.5" y="208" width="60" height="30" as="geometry" />
        </mxCell>
        <mxCell id="OUz7jEG2wL1sS6SU-Tpn-308" value="" style="ellipse;whiteSpace=wrap;html=1;fillColor=#f8cecc;strokeColor=#b85450;" parent="1" vertex="1">
          <mxGeometry x="1932" y="456.75" width="118" height="44" as="geometry" />
        </mxCell>
        <mxCell id="OUz7jEG2wL1sS6SU-Tpn-309" value="grad" style="text;strokeColor=none;align=center;fillColor=none;html=1;verticalAlign=middle;whiteSpace=wrap;rounded=0;fontSize=12;" parent="1" vertex="1">
          <mxGeometry x="1961" y="463.75" width="60" height="30" as="geometry" />
        </mxCell>
        <mxCell id="OUz7jEG2wL1sS6SU-Tpn-312" value="" style="ellipse;whiteSpace=wrap;html=1;fillColor=#f8cecc;strokeColor=#b85450;" parent="1" vertex="1">
          <mxGeometry x="2495.5" y="175" width="118" height="44" as="geometry" />
        </mxCell>
        <mxCell id="OUz7jEG2wL1sS6SU-Tpn-313" value="postanskiBroj" style="text;strokeColor=none;align=center;fillColor=none;html=1;verticalAlign=middle;whiteSpace=wrap;rounded=0;fontSize=12;" parent="1" vertex="1">
          <mxGeometry x="2524.5" y="182" width="60" height="30" as="geometry" />
        </mxCell>
        <mxCell id="OUz7jEG2wL1sS6SU-Tpn-314" value="" style="ellipse;whiteSpace=wrap;html=1;fillColor=#f8cecc;strokeColor=#b85450;" parent="1" vertex="1">
          <mxGeometry x="2508.5" y="234" width="118" height="44" as="geometry" />
        </mxCell>
        <mxCell id="OUz7jEG2wL1sS6SU-Tpn-315" value="drzava" style="text;strokeColor=none;align=center;fillColor=none;html=1;verticalAlign=middle;whiteSpace=wrap;rounded=0;fontSize=12;" parent="1" vertex="1">
          <mxGeometry x="2537.5" y="241" width="60" height="30" as="geometry" />
        </mxCell>
        <mxCell id="OUz7jEG2wL1sS6SU-Tpn-327" style="edgeStyle=orthogonalEdgeStyle;rounded=0;orthogonalLoop=1;jettySize=auto;html=1;exitX=0;exitY=0.5;exitDx=0;exitDy=0;entryX=0.25;entryY=0;entryDx=0;entryDy=0;" parent="1" source="OUz7jEG2wL1sS6SU-Tpn-321" target="OUz7jEG2wL1sS6SU-Tpn-222" edge="1">
          <mxGeometry relative="1" as="geometry">
            <Array as="points">
              <mxPoint x="1463" y="857" />
              <mxPoint x="1463" y="597" />
              <mxPoint x="1387" y="597" />
              <mxPoint x="1387" y="228" />
              <mxPoint x="1481" y="228" />
            </Array>
          </mxGeometry>
        </mxCell>
        <mxCell id="OUz7jEG2wL1sS6SU-Tpn-321" value="" style="rhombus;whiteSpace=wrap;html=1;fillColor=#fff2cc;strokeColor=#d6b656;" parent="1" vertex="1">
          <mxGeometry x="1558" y="817" width="114" height="80" as="geometry" />
        </mxCell>
        <mxCell id="OUz7jEG2wL1sS6SU-Tpn-322" value="Protiv_Koga_Je" style="text;strokeColor=none;align=center;fillColor=none;html=1;verticalAlign=middle;whiteSpace=wrap;rounded=0;fontSize=12;" parent="1" vertex="1">
          <mxGeometry x="1585" y="842" width="60" height="30" as="geometry" />
        </mxCell>
        <mxCell id="OUz7jEG2wL1sS6SU-Tpn-332" style="edgeStyle=orthogonalEdgeStyle;rounded=0;orthogonalLoop=1;jettySize=auto;html=1;exitX=0;exitY=0.5;exitDx=0;exitDy=0;" parent="1" source="OUz7jEG2wL1sS6SU-Tpn-329" edge="1">
          <mxGeometry relative="1" as="geometry">
            <mxPoint x="1729" y="608" as="targetPoint" />
          </mxGeometry>
        </mxCell>
        <mxCell id="OUz7jEG2wL1sS6SU-Tpn-329" value="" style="rhombus;whiteSpace=wrap;html=1;fillColor=#fff2cc;strokeColor=#d6b656;" parent="1" vertex="1">
          <mxGeometry x="2033" y="586" width="114" height="80" as="geometry" />
        </mxCell>
        <mxCell id="OUz7jEG2wL1sS6SU-Tpn-330" value="Ima_Rociste" style="text;strokeColor=none;align=center;fillColor=none;html=1;verticalAlign=middle;whiteSpace=wrap;rounded=0;fontSize=12;" parent="1" vertex="1">
          <mxGeometry x="2060" y="611" width="60" height="30" as="geometry" />
        </mxCell>
        <mxCell id="OUz7jEG2wL1sS6SU-Tpn-336" style="edgeStyle=orthogonalEdgeStyle;rounded=0;orthogonalLoop=1;jettySize=auto;html=1;exitX=0;exitY=0.5;exitDx=0;exitDy=0;entryX=1;entryY=0.75;entryDx=0;entryDy=0;" parent="1" source="OUz7jEG2wL1sS6SU-Tpn-217" target="OUz7jEG2wL1sS6SU-Tpn-222" edge="1">
          <mxGeometry relative="1" as="geometry" />
        </mxCell>
        <mxCell id="OUz7jEG2wL1sS6SU-Tpn-339" style="edgeStyle=orthogonalEdgeStyle;rounded=0;orthogonalLoop=1;jettySize=auto;html=1;exitX=0;exitY=0.5;exitDx=0;exitDy=0;entryX=1;entryY=0.5;entryDx=0;entryDy=0;" parent="1" source="OUz7jEG2wL1sS6SU-Tpn-337" target="OUz7jEG2wL1sS6SU-Tpn-27" edge="1">
          <mxGeometry relative="1" as="geometry" />
        </mxCell>
        <mxCell id="OUz7jEG2wL1sS6SU-Tpn-337" value="" style="rhombus;whiteSpace=wrap;html=1;fillColor=#fff2cc;strokeColor=#d6b656;" parent="1" vertex="1">
          <mxGeometry x="1201.5" y="161" width="114" height="80" as="geometry" />
        </mxCell>
        <mxCell id="OUz7jEG2wL1sS6SU-Tpn-338" value="Planirano_Za" style="text;strokeColor=none;align=center;fillColor=none;html=1;verticalAlign=middle;whiteSpace=wrap;rounded=0;fontSize=12;" parent="1" vertex="1">
          <mxGeometry x="1228.5" y="186" width="60" height="30" as="geometry" />
        </mxCell>
        <mxCell id="OUz7jEG2wL1sS6SU-Tpn-346" style="edgeStyle=orthogonalEdgeStyle;rounded=0;orthogonalLoop=1;jettySize=auto;html=1;exitX=1;exitY=0.5;exitDx=0;exitDy=0;entryX=0;entryY=0.25;entryDx=0;entryDy=0;" parent="1" source="OUz7jEG2wL1sS6SU-Tpn-343" target="OUz7jEG2wL1sS6SU-Tpn-241" edge="1">
          <mxGeometry relative="1" as="geometry">
            <mxPoint x="2185" y="608" as="targetPoint" />
            <Array as="points">
              <mxPoint x="2185" y="882" />
              <mxPoint x="2185" y="600" />
            </Array>
          </mxGeometry>
        </mxCell>
        <mxCell id="OUz7jEG2wL1sS6SU-Tpn-343" value="" style="rhombus;whiteSpace=wrap;html=1;fillColor=#fff2cc;strokeColor=#d6b656;" parent="1" vertex="1">
          <mxGeometry x="2006" y="842" width="114" height="80" as="geometry" />
        </mxCell>
        <mxCell id="OUz7jEG2wL1sS6SU-Tpn-344" value="Ima_Dokument" style="text;strokeColor=none;align=center;fillColor=none;html=1;verticalAlign=middle;whiteSpace=wrap;rounded=0;fontSize=12;" parent="1" vertex="1">
          <mxGeometry x="2033" y="867" width="60" height="30" as="geometry" />
        </mxCell>
      </root>
    </mxGraphModel>
  </diagram>
</mxfile>
